<svg fill="none" height="1571" viewBox="0 0 1200 1571" width="1200" xmlns="http://www.w3.org/2000/svg" xmlns:xlink="http://www.w3.org/1999/xlink"><clipPath id="clip0_273_95"><rect height="1571" rx="20" width="1200"/></clipPath><g clip-path="url(#clip0_273_95)"><rect fill="#e2f1ff" height="1571" rx="20" width="1200"/><g fill="#000000"><path d="M280.243 135.588V127.636H322.021V135.588H305.836V180H296.427V135.588H280.243ZM338.922 156.989V180H329.666V127.636H338.717V147.401H339.177C340.098 145.185 341.521 143.437 343.447 142.159 345.39 140.864 347.862 140.216 350.862 140.216 353.589 140.216 355.967 140.787 357.995 141.929 360.024 143.071 361.592 144.741 362.7 146.94 363.825 149.139 364.387 151.824 364.387 154.994V180H355.132V156.426C355.132 153.784 354.45 151.73 353.086 150.264 351.74 148.781 349.848 148.04 347.41 148.04 345.774 148.04 344.308 148.398 343.012 149.114 341.734 149.812 340.728 150.827 339.995 152.156 339.279 153.486 338.922 155.097 338.922 156.989ZM391.208 180.767C387.271 180.767 383.87 179.949 381.007 178.312 378.16 176.659 375.97 174.324 374.436 171.307 372.902 168.273 372.135 164.702 372.135 160.594 372.135 156.554 372.902 153.009 374.436 149.957 375.987 146.889 378.152 144.503 380.93 142.798 383.708 141.077 386.973 140.216 390.723 140.216 393.143 140.216 395.427 140.608 397.575 141.392 399.74 142.159 401.649 143.352 403.302 144.972 404.973 146.591 406.285 148.653 407.24 151.159 408.194 153.648 408.672 156.614 408.672 160.057V162.895H376.481V156.656H399.799C399.782 154.884 399.399 153.307 398.649 151.926 397.899 150.528 396.85 149.429 395.504 148.628 394.174 147.827 392.623 147.426 390.85 147.426 388.958 147.426 387.297 147.886 385.865 148.807 384.433 149.71 383.316 150.903 382.515 152.386 381.731 153.852 381.331 155.463 381.314 157.219V162.665C381.314 164.949 381.731 166.909 382.566 168.545 383.402 170.165 384.569 171.409 386.069 172.278 387.569 173.131 389.325 173.557 391.336 173.557 392.683 173.557 393.902 173.369 394.993 172.994 396.083 172.602 397.029 172.031 397.831 171.281 398.632 170.531 399.237 169.602 399.646 168.494L408.288 169.466C407.743 171.75 406.703 173.744 405.169 175.449 403.652 177.136 401.708 178.449 399.339 179.386 396.97 180.307 394.26 180.767 391.208 180.767ZM453.972 140.727V147.886H431.395V140.727H453.972ZM436.969 131.318H446.225V168.188C446.225 169.432 446.412 170.386 446.787 171.051 447.179 171.699 447.691 172.142 448.321 172.381 448.952 172.619 449.651 172.739 450.418 172.739 450.998 172.739 451.526 172.696 452.003 172.611 452.498 172.526 452.873 172.449 453.128 172.381L454.688 179.616C454.194 179.787 453.486 179.974 452.566 180.179 451.662 180.384 450.554 180.503 449.242 180.537 446.924 180.605 444.836 180.256 442.978 179.489 441.12 178.705 439.645 177.494 438.554 175.858 437.48 174.222 436.952 172.176 436.969 169.722V131.318ZM467.466 194.727C466.204 194.727 465.037 194.625 463.963 194.42 462.906 194.233 462.062 194.011 461.431 193.756L463.579 186.545C464.926 186.938 466.127 187.125 467.184 187.108 468.241 187.091 469.17 186.759 469.971 186.111 470.789 185.48 471.48 184.423 472.042 182.94L472.835 180.818 458.593 140.727H468.412L477.463 170.386H477.872L486.949 140.727H496.792L481.068 184.756C480.335 186.835 479.363 188.616 478.153 190.099 476.943 191.599 475.46 192.741 473.704 193.526 471.966 194.327 469.886 194.727 467.466 194.727ZM503.197 194.727V140.727H512.299V147.222H512.836C513.314 146.267 513.987 145.253 514.856 144.179 515.725 143.088 516.902 142.159 518.385 141.392 519.868 140.608 521.76 140.216 524.061 140.216 527.095 140.216 529.831 140.991 532.268 142.543 534.723 144.077 536.666 146.352 538.098 149.369 539.547 152.369 540.271 156.051 540.271 160.415 540.271 164.727 539.564 168.392 538.149 171.409 536.734 174.426 534.808 176.727 532.37 178.312 529.933 179.898 527.172 180.69 524.086 180.69 521.836 180.69 519.97 180.315 518.487 179.565 517.004 178.815 515.811 177.912 514.907 176.855 514.021 175.781 513.331 174.767 512.836 173.812H512.453V194.727H503.197ZM512.274 160.364C512.274 162.903 512.632 165.128 513.348 167.037 514.081 168.946 515.129 170.437 516.493 171.511 517.873 172.568 519.544 173.097 521.504 173.097 523.549 173.097 525.262 172.551 526.643 171.46 528.024 170.352 529.064 168.844 529.762 166.935 530.478 165.009 530.836 162.818 530.836 160.364 530.836 157.926 530.487 155.761 529.788 153.869 529.089 151.977 528.049 150.494 526.669 149.42 525.288 148.347 523.566 147.81 521.504 147.81 519.527 147.81 517.848 148.33 516.467 149.369 515.086 150.409 514.038 151.866 513.322 153.741 512.623 155.616 512.274 157.824 512.274 160.364ZM565.583 180.767C561.646 180.767 558.245 179.949 555.382 178.312 552.535 176.659 550.345 174.324 548.811 171.307 547.277 168.273 546.51 164.702 546.51 160.594 546.51 156.554 547.277 153.009 548.811 149.957 550.362 146.889 552.527 144.503 555.305 142.798 558.083 141.077 561.348 140.216 565.098 140.216 567.518 140.216 569.802 140.608 571.95 141.392 574.115 142.159 576.024 143.352 577.677 144.972 579.348 146.591 580.66 148.653 581.615 151.159 582.569 153.648 583.047 156.614 583.047 160.057V162.895H550.856V156.656H574.174C574.157 154.884 573.774 153.307 573.024 151.926 572.274 150.528 571.225 149.429 569.879 148.628 568.549 147.827 566.998 147.426 565.225 147.426 563.333 147.426 561.672 147.886 560.24 148.807 558.808 149.71 557.691 150.903 556.89 152.386 556.106 153.852 555.706 155.463 555.689 157.219V162.665C555.689 164.949 556.106 166.909 556.941 168.545 557.777 170.165 558.944 171.409 560.444 172.278 561.944 173.131 563.7 173.557 565.711 173.557 567.058 173.557 568.277 173.369 569.368 172.994 570.458 172.602 571.404 172.031 572.206 171.281 573.007 170.531 573.612 169.602 574.021 168.494L582.663 169.466C582.118 171.75 581.078 173.744 579.544 175.449 578.027 177.136 576.083 178.449 573.714 179.386 571.345 180.307 568.635 180.767 565.583 180.767ZM621.917 151.108 613.479 152.028C613.24 151.176 612.823 150.375 612.226 149.625 611.647 148.875 610.863 148.27 609.874 147.81 608.885 147.349 607.675 147.119 606.243 147.119 604.317 147.119 602.698 147.537 601.385 148.372 600.09 149.207 599.451 150.29 599.468 151.619 599.451 152.761 599.868 153.69 600.721 154.406 601.59 155.122 603.022 155.71 605.016 156.17L611.715 157.602C615.431 158.403 618.192 159.673 619.999 161.412 621.823 163.151 622.743 165.426 622.76 168.239 622.743 170.71 622.019 172.892 620.587 174.784 619.172 176.659 617.203 178.125 614.681 179.182 612.158 180.239 609.26 180.767 605.988 180.767 601.181 180.767 597.311 179.761 594.38 177.75 591.448 175.722 589.701 172.901 589.138 169.287L598.164 168.418C598.573 170.19 599.442 171.528 600.772 172.432 602.101 173.335 603.831 173.787 605.962 173.787 608.161 173.787 609.925 173.335 611.255 172.432 612.601 171.528 613.275 170.412 613.275 169.082 613.275 167.957 612.84 167.028 611.971 166.295 611.118 165.562 609.789 165 607.982 164.608L601.283 163.202C597.516 162.418 594.729 161.097 592.922 159.239 591.115 157.364 590.221 154.994 590.238 152.131 590.221 149.71 590.877 147.614 592.206 145.841 593.553 144.051 595.419 142.67 597.806 141.699 600.209 140.71 602.979 140.216 606.115 140.216 610.718 140.216 614.34 141.196 616.982 143.156 619.641 145.116 621.286 147.767 621.917 151.108ZM665.382 180.767C661.547 180.767 658.223 179.923 655.411 178.236 652.598 176.548 650.417 174.187 648.865 171.153 647.331 168.119 646.564 164.574 646.564 160.517 646.564 156.46 647.331 152.906 648.865 149.855 650.417 146.804 652.598 144.435 655.411 142.747 658.223 141.06 661.547 140.216 665.382 140.216 669.218 140.216 672.542 141.06 675.354 142.747 678.167 144.435 680.34 146.804 681.874 149.855 683.425 152.906 684.201 156.46 684.201 160.517 684.201 164.574 683.425 168.119 681.874 171.153 680.34 174.187 678.167 176.548 675.354 178.236 672.542 179.923 669.218 180.767 665.382 180.767ZM665.434 173.352C667.513 173.352 669.252 172.781 670.65 171.639 672.047 170.48 673.087 168.929 673.769 166.986 674.468 165.043 674.817 162.878 674.817 160.491 674.817 158.088 674.468 155.915 673.769 153.972 673.087 152.011 672.047 150.452 670.65 149.293 669.252 148.134 667.513 147.554 665.434 147.554 663.303 147.554 661.53 148.134 660.115 149.293 658.718 150.452 657.669 152.011 656.971 153.972 656.289 155.915 655.948 158.088 655.948 160.491 655.948 162.878 656.289 165.043 656.971 166.986 657.669 168.929 658.718 170.48 660.115 171.639 661.53 172.781 663.303 173.352 665.434 173.352ZM711.949 140.727V147.886H688.733V140.727H711.949ZM694.537 180V137.02C694.537 134.378 695.082 132.179 696.173 130.423 697.281 128.668 698.764 127.355 700.622 126.486 702.48 125.616 704.542 125.182 706.809 125.182 708.412 125.182 709.835 125.31 711.079 125.565 712.324 125.821 713.244 126.051 713.841 126.256L712 133.415C711.608 133.295 711.113 133.176 710.517 133.057 709.92 132.92 709.255 132.852 708.522 132.852 706.801 132.852 705.582 133.27 704.866 134.105 704.167 134.923 703.818 136.099 703.818 137.634V180H694.537ZM744.471 127.636 758.099 168.852H758.636L772.238 127.636H782.67L764.21 180H752.5L734.065 127.636H744.471ZM789.567 180V127.636H809.203C813.226 127.636 816.601 128.386 819.328 129.886 822.073 131.386 824.144 133.449 825.542 136.074 826.956 138.682 827.664 141.648 827.664 144.972 827.664 148.33 826.956 151.312 825.542 153.92 824.127 156.528 822.039 158.582 819.277 160.082 816.516 161.565 813.115 162.307 809.076 162.307H796.061V154.509H807.797C810.15 154.509 812.076 154.099 813.576 153.281 815.076 152.463 816.184 151.338 816.9 149.906 817.632 148.474 817.999 146.83 817.999 144.972 817.999 143.114 817.632 141.477 816.9 140.062 816.184 138.648 815.067 137.548 813.55 136.764 812.05 135.963 810.115 135.562 807.746 135.562H799.053V180H789.567ZM878.934 127.636V180H870.497L845.824 144.332H845.389V180H835.903V127.636H844.392L869.039 163.33H869.5V127.636H878.934ZM919.901 151.108 911.463 152.028C911.225 151.176 910.807 150.375 910.211 149.625 909.631 148.875 908.847 148.27 907.858 147.81 906.87 147.349 905.659 147.119 904.228 147.119 902.301 147.119 900.682 147.537 899.37 148.372 898.074 149.207 897.435 150.29 897.452 151.619 897.435 152.761 897.853 153.69 898.705 154.406 899.574 155.122 901.006 155.71 903 156.17L909.699 157.602C913.415 158.403 916.176 159.673 917.983 161.412 919.807 163.151 920.728 165.426 920.745 168.239 920.728 170.71 920.003 172.892 918.571 174.784 917.157 176.659 915.188 178.125 912.665 179.182 910.142 180.239 907.245 180.767 903.972 180.767 899.165 180.767 895.296 179.761 892.364 177.75 889.432 175.722 887.685 172.901 887.123 169.287L896.148 168.418C896.557 170.19 897.426 171.528 898.756 172.432 900.086 173.335 901.816 173.787 903.946 173.787 906.145 173.787 907.909 173.335 909.239 172.432 910.586 171.528 911.259 170.412 911.259 169.082 911.259 167.957 910.824 167.028 909.955 166.295 909.103 165.562 907.773 165 905.966 164.608L899.267 163.202C895.5 162.418 892.713 161.097 890.907 159.239 889.1 157.364 888.205 154.994 888.222 152.131 888.205 149.71 888.861 147.614 890.191 145.841 891.537 144.051 893.404 142.67 895.79 141.699 898.194 140.71 900.963 140.216 904.1 140.216 908.702 140.216 912.324 141.196 914.966 143.156 917.625 145.116 919.27 147.767 919.901 151.108Z"/><path d="M775.409 1418.11C775.409 1416.97 775.879 1415.83 776.686 1415.03 777.492 1414.22 778.634 1413.75 779.776 1413.75 780.919 1413.75 782.061 1414.22 782.867 1415.03 783.673 1415.83 784.144 1416.97 784.144 1418.11 784.144 1418.72 784.009 1419.25 783.808 1419.79 783.606 1420.33 783.27 1420.8 782.867 1421.2 782.464 1421.6 781.994 1421.94 781.456 1422.14 780.919 1422.34 780.381 1422.48 779.776 1422.48 779.172 1422.48 778.634 1422.34 778.097 1422.14 777.559 1421.94 777.089 1421.6 776.686 1421.2 776.282 1420.8 775.946 1420.33 775.745 1419.79 775.476 1419.25 775.409 1418.65 775.409 1418.11ZM776.215 1418.11C776.215 1418.58 776.282 1419.05 776.484 1419.46 776.686 1419.86 776.887 1420.26 777.223 1420.6 777.559 1420.93 777.962 1421.2 778.365 1421.4 778.768 1421.6 779.239 1421.67 779.709 1421.67 780.65 1421.67 781.59 1421.27 782.195 1420.6 782.867 1419.93 783.203 1419.05 783.203 1418.05 783.203 1417.11 782.8 1416.17 782.195 1415.5 781.523 1414.82 780.65 1414.42 779.709 1414.42 779.239 1414.42 778.768 1414.49 778.365 1414.69 777.962 1414.89 777.559 1415.16 777.223 1415.5 776.887 1415.83 776.618 1416.23 776.484 1416.64 776.282 1417.17 776.215 1417.64 776.215 1418.11ZM779.104 1420.6H778.097V1415.63H780.045C781.053 1415.63 781.859 1416.17 781.859 1417.17 781.859 1417.51 781.792 1417.78 781.59 1418.05 781.389 1418.31 781.187 1418.52 780.851 1418.58L781.859 1420.6H780.717L779.776 1418.78H779.037V1420.6H779.104ZM779.978 1416.57H779.104V1417.78H779.978C780.381 1417.78 780.784 1417.64 780.784 1417.17 780.784 1416.7 780.381 1416.57 779.978 1416.57Z"/><path clip-rule="evenodd" d="M570.546 1452.54 552.673 1425.76V1452.54H544.745V1413.75H553.95L570.814 1439.12V1413.75H578.743V1452.54H570.546Z" fill-rule="evenodd"/><path clip-rule="evenodd" d="M596.951 1425.5C588.888 1425.5 582.438 1431.47 582.438 1439.39 582.438 1447.38 588.821 1453.15 596.884 1453.15 604.947 1453.15 611.397 1447.17 611.397 1439.19 611.33 1431.34 604.88 1425.5 596.951 1425.5ZM596.884 1446.03C593.256 1446.03 590.299 1443.28 590.299 1439.25 590.299 1435.23 593.189 1432.54 596.817 1432.54 600.445 1432.54 603.402 1435.29 603.402 1439.25 603.402 1443.21 600.512 1446.03 596.884 1446.03Z" fill-rule="evenodd"/><path clip-rule="evenodd" d="M631.351 1426.03V1433.62C630.545 1433.48 629.672 1433.42 628.865 1433.42 625.17 1433.42 622.55 1435.97 622.55 1440.93V1452.54H614.957V1426.1H622.281V1429.99H622.348C623.759 1426.97 626.447 1425.83 629.201 1425.83 630.008 1425.76 630.68 1425.9 631.351 1426.03Z" fill-rule="evenodd"/><path clip-rule="evenodd" d="M653.526 1413.68V1429.05H653.458C650.704 1425.83 647.075 1425.56 645.53 1425.56 637.938 1425.56 632.831 1432.54 632.831 1439.26 632.831 1446.37 637.736 1453.01 645.463 1453.01 647.277 1453.01 651.241 1452.75 653.727 1449.12H653.794V1452.48H661.32V1413.68H653.526ZM647.21 1446.03C643.581 1446.03 640.625 1443.28 640.625 1439.26 640.625 1435.23 643.581 1432.54 647.21 1432.54 650.838 1432.54 653.794 1435.3 653.794 1439.26 653.727 1443.21 650.771 1446.03 647.21 1446.03Z" fill-rule="evenodd"/><path clip-rule="evenodd" d="M677.713 1452.54 663.67 1413.75H672.337L682.416 1443.28 692.562 1413.75H701.095L686.985 1452.54H677.713Z" fill-rule="evenodd"/><path clip-rule="evenodd" d="M718.835 1413.68H704.389V1452.54H712.451V1438.85H718.566C726.696 1438.85 732.743 1434.76 732.743 1426.17 732.676 1417.91 726.629 1413.68 718.835 1413.68ZM718.163 1431.34H712.384V1421.27H718.095C721.455 1421.27 724.613 1422.54 724.613 1426.3 724.613 1429.99 721.321 1431.34 718.163 1431.34Z" fill-rule="evenodd"/><path clip-rule="evenodd" d="M762.575 1452.54 744.702 1425.76V1452.54H736.774V1413.75H745.979L762.844 1439.12V1413.75H770.772V1452.54H762.575Z" fill-rule="evenodd"/></g><path clip-rule="evenodd" d="M424.608 1471C418.36 1462.41 415 1452.01 415 1441.4 415 1413.55 437.576 1391 465.393 1391 493.209 1391 515.785 1413.55 515.785 1441.4 515.785 1452.01 512.426 1462.41 506.177 1471L481.989 1431.67 479.637 1435.63 481.989 1446.64 465.393 1418.18 455.113 1435.56 457.531 1446.64 448.797 1431.74 424.608 1471Z" fill="#3e5fff" fill-rule="evenodd"/><rect fill="#ffffff" height="152" rx="76" width="1093" x="52" y="286"/><rect fill="#ffffff" height="151" rx="75.5" width="1093" x="52" y="493"/><rect fill="#ffffff" height="151" rx="75.5" width="1093" x="53" y="707"/><rect fill="#ffffff" height="151" rx="75.5" width="1093" x="53" y="921"/><rect fill="#ffffff" height="151" rx="75.5" width="1093" x="54" y="1135"/><path d="M253.325 376V346.909H263.694C265.948 346.909 267.818 347.297 269.305 348.074 270.801 348.85 271.919 349.925 272.657 351.298 273.396 352.662 273.765 354.239 273.765 356.028 273.765 357.809 273.391 359.376 272.643 360.73 271.904 362.075 270.787 363.121 269.291 363.869 267.804 364.617 265.934 364.991 263.68 364.991H255.825V361.213H263.282C264.703 361.213 265.858 361.009 266.748 360.602 267.648 360.195 268.306 359.603 268.723 358.827 269.139 358.05 269.348 357.117 269.348 356.028 269.348 354.93 269.135 353.978 268.708 353.173 268.292 352.368 267.634 351.753 266.734 351.327 265.844 350.891 264.674 350.673 263.225 350.673H257.714V376H253.325ZM267.686 362.875 274.873 376H269.873L262.828 362.875H267.686ZM287.895 376.44C285.746 376.44 283.894 375.981 282.341 375.062 280.798 374.134 279.605 372.832 278.762 371.156 277.928 369.471 277.512 367.496 277.512 365.233 277.512 362.998 277.928 361.028 278.762 359.324 279.605 357.619 280.779 356.289 282.284 355.332 283.8 354.376 285.57 353.898 287.597 353.898 288.828 353.898 290.021 354.101 291.176 354.509 292.332 354.916 293.369 355.555 294.287 356.426 295.206 357.297 295.93 358.429 296.461 359.821 296.991 361.204 297.256 362.884 297.256 364.864V366.369H279.912V363.188H293.094C293.094 362.07 292.867 361.08 292.412 360.219 291.958 359.348 291.319 358.661 290.495 358.159 289.68 357.657 288.724 357.406 287.625 357.406 286.432 357.406 285.391 357.7 284.5 358.287 283.62 358.865 282.938 359.622 282.455 360.56 281.981 361.488 281.745 362.496 281.745 363.585V366.071C281.745 367.529 282 368.77 282.512 369.793 283.033 370.815 283.757 371.597 284.685 372.136 285.613 372.667 286.697 372.932 287.938 372.932 288.743 372.932 289.477 372.818 290.14 372.591 290.802 372.354 291.375 372.004 291.858 371.54 292.341 371.076 292.711 370.503 292.966 369.821L296.986 370.545C296.664 371.729 296.087 372.766 295.253 373.656 294.429 374.537 293.392 375.223 292.142 375.716 290.902 376.199 289.486 376.44 287.895 376.44ZM301.968 376V354.182H306.045V357.733H306.315C306.77 356.53 307.513 355.593 308.545 354.92 309.577 354.239 310.813 353.898 312.252 353.898 313.711 353.898 314.932 354.239 315.917 354.92 316.912 355.602 317.645 356.54 318.119 357.733H318.346C318.867 356.568 319.696 355.64 320.832 354.949 321.968 354.248 323.323 353.898 324.895 353.898 326.874 353.898 328.488 354.518 329.738 355.759 330.998 356.999 331.627 358.869 331.627 361.369V376H327.38V361.767C327.38 360.29 326.978 359.22 326.173 358.557 325.368 357.894 324.407 357.562 323.289 357.562 321.907 357.562 320.832 357.989 320.065 358.841 319.298 359.684 318.914 360.768 318.914 362.094V376H314.681V361.497C314.681 360.313 314.312 359.362 313.574 358.642 312.835 357.922 311.874 357.562 310.69 357.562 309.885 357.562 309.142 357.776 308.46 358.202 307.788 358.618 307.243 359.201 306.826 359.949 306.419 360.697 306.216 361.563 306.216 362.548V376H301.968ZM346.51 376.44C344.465 376.44 342.68 375.972 341.155 375.034 339.631 374.097 338.447 372.785 337.604 371.099 336.761 369.414 336.34 367.444 336.34 365.19 336.34 362.927 336.761 360.948 337.604 359.253 338.447 357.558 339.631 356.241 341.155 355.304 342.68 354.366 344.465 353.898 346.51 353.898 348.556 353.898 350.341 354.366 351.865 355.304 353.39 356.241 354.574 357.558 355.417 359.253 356.259 360.948 356.681 362.927 356.681 365.19 356.681 367.444 356.259 369.414 355.417 371.099 354.574 372.785 353.39 374.097 351.865 375.034 350.341 375.972 348.556 376.44 346.51 376.44ZM346.525 372.875C347.85 372.875 348.949 372.525 349.82 371.824 350.691 371.123 351.335 370.19 351.752 369.026 352.178 367.861 352.391 366.578 352.391 365.176 352.391 363.784 352.178 362.506 351.752 361.341 351.335 360.167 350.691 359.224 349.82 358.514 348.949 357.804 347.85 357.449 346.525 357.449 345.189 357.449 344.081 357.804 343.201 358.514 342.329 359.224 341.681 360.167 341.255 361.341 340.838 362.506 340.63 363.784 340.63 365.176 340.63 366.578 340.838 367.861 341.255 369.026 341.681 370.19 342.329 371.123 343.201 371.824 344.081 372.525 345.189 372.875 346.525 372.875ZM371.606 354.182V357.591H359.689V354.182H371.606ZM362.885 348.955H367.132V369.594C367.132 370.418 367.255 371.038 367.501 371.455 367.747 371.862 368.065 372.141 368.453 372.293 368.85 372.435 369.281 372.506 369.745 372.506 370.086 372.506 370.385 372.482 370.64 372.435 370.896 372.387 371.095 372.349 371.237 372.321L372.004 375.83C371.758 375.924 371.407 376.019 370.953 376.114 370.498 376.218 369.93 376.275 369.248 376.284 368.131 376.303 367.089 376.104 366.123 375.688 365.157 375.271 364.376 374.627 363.779 373.756 363.183 372.884 362.885 371.791 362.885 370.474V348.955ZM385.473 376.44C383.324 376.44 381.472 375.981 379.919 375.062 378.376 374.134 377.183 372.832 376.34 371.156 375.507 369.471 375.09 367.496 375.09 365.233 375.09 362.998 375.507 361.028 376.34 359.324 377.183 357.619 378.357 356.289 379.863 355.332 381.378 354.376 383.149 353.898 385.175 353.898 386.406 353.898 387.599 354.101 388.755 354.509 389.91 354.916 390.947 355.555 391.865 356.426 392.784 357.297 393.508 358.429 394.039 359.821 394.569 361.204 394.834 362.884 394.834 364.864V366.369H377.49V363.188H390.672C390.672 362.07 390.445 361.08 389.99 360.219 389.536 359.348 388.897 358.661 388.073 358.159 387.258 357.657 386.302 357.406 385.203 357.406 384.01 357.406 382.969 357.7 382.078 358.287 381.198 358.865 380.516 359.622 380.033 360.56 379.56 361.488 379.323 362.496 379.323 363.585V366.071C379.323 367.529 379.578 368.77 380.09 369.793 380.611 370.815 381.335 371.597 382.263 372.136 383.191 372.667 384.275 372.932 385.516 372.932 386.321 372.932 387.055 372.818 387.718 372.591 388.381 372.354 388.953 372.004 389.436 371.54 389.919 371.076 390.289 370.503 390.544 369.821L394.564 370.545C394.242 371.729 393.665 372.766 392.831 373.656 392.007 374.537 390.971 375.223 389.721 375.716 388.48 376.199 387.064 376.44 385.473 376.44ZM416.482 376.483C415.099 376.483 413.849 376.227 412.732 375.716 411.614 375.195 410.729 374.442 410.076 373.457 409.432 372.473 409.11 371.265 409.11 369.835 409.11 368.604 409.346 367.591 409.82 366.795 410.293 366 410.933 365.37 411.738 364.906 412.542 364.442 413.442 364.092 414.436 363.855 415.431 363.618 416.444 363.438 417.476 363.315 418.783 363.164 419.844 363.041 420.658 362.946 421.472 362.842 422.064 362.676 422.434 362.449 422.803 362.222 422.988 361.852 422.988 361.341V361.241C422.988 360.001 422.637 359.04 421.936 358.358 421.245 357.676 420.213 357.335 418.84 357.335 417.41 357.335 416.283 357.652 415.459 358.287 414.645 358.912 414.081 359.608 413.769 360.375L409.777 359.466C410.251 358.14 410.942 357.07 411.851 356.256 412.77 355.432 413.826 354.835 415.019 354.466 416.212 354.087 417.467 353.898 418.783 353.898 419.654 353.898 420.578 354.002 421.553 354.21 422.538 354.409 423.456 354.778 424.309 355.318 425.17 355.858 425.876 356.63 426.425 357.634 426.974 358.628 427.249 359.92 427.249 361.511V376H423.101V373.017H422.931C422.656 373.566 422.244 374.106 421.695 374.636 421.146 375.167 420.44 375.607 419.578 375.957 418.717 376.308 417.685 376.483 416.482 376.483ZM417.405 373.074C418.579 373.074 419.583 372.842 420.417 372.378 421.259 371.914 421.899 371.308 422.334 370.56 422.779 369.802 423.002 368.992 423.002 368.131V365.318C422.85 365.47 422.557 365.612 422.121 365.744 421.695 365.867 421.207 365.976 420.658 366.071 420.109 366.156 419.574 366.237 419.053 366.312 418.532 366.379 418.096 366.436 417.746 366.483 416.922 366.587 416.169 366.762 415.488 367.009 414.815 367.255 414.275 367.61 413.868 368.074 413.471 368.528 413.272 369.134 413.272 369.892 413.272 370.943 413.66 371.739 414.436 372.278 415.213 372.809 416.203 373.074 417.405 373.074ZM442.096 376.44C439.984 376.44 438.166 375.962 436.642 375.006 435.127 374.04 433.962 372.709 433.147 371.014 432.333 369.319 431.926 367.378 431.926 365.19 431.926 362.974 432.342 361.019 433.176 359.324 434.009 357.619 435.183 356.289 436.699 355.332 438.214 354.376 439.999 353.898 442.054 353.898 443.711 353.898 445.188 354.205 446.485 354.821 447.783 355.427 448.829 356.279 449.625 357.378 450.43 358.476 450.908 359.759 451.059 361.227H446.926C446.699 360.205 446.178 359.324 445.363 358.585 444.558 357.847 443.479 357.477 442.125 357.477 440.941 357.477 439.904 357.79 439.014 358.415 438.133 359.03 437.447 359.911 436.954 361.057 436.462 362.193 436.216 363.538 436.216 365.091 436.216 366.682 436.457 368.055 436.94 369.21 437.423 370.366 438.105 371.26 438.985 371.895 439.876 372.529 440.922 372.847 442.125 372.847 442.93 372.847 443.659 372.7 444.312 372.406 444.975 372.103 445.529 371.672 445.974 371.114 446.429 370.555 446.746 369.883 446.926 369.097H451.059C450.908 370.508 450.449 371.767 449.681 372.875 448.914 373.983 447.887 374.854 446.599 375.489 445.321 376.123 443.82 376.44 442.096 376.44ZM464.792 376.44C462.68 376.44 460.862 375.962 459.337 375.006 457.822 374.04 456.657 372.709 455.843 371.014 455.028 369.319 454.621 367.378 454.621 365.19 454.621 362.974 455.038 361.019 455.871 359.324 456.704 357.619 457.879 356.289 459.394 355.332 460.909 354.376 462.694 353.898 464.749 353.898 466.406 353.898 467.883 354.205 469.181 354.821 470.478 355.427 471.525 356.279 472.32 357.378 473.125 358.476 473.603 359.759 473.755 361.227H469.621C469.394 360.205 468.873 359.324 468.059 358.585 467.254 357.847 466.174 357.477 464.82 357.477 463.636 357.477 462.599 357.79 461.709 358.415 460.828 359.03 460.142 359.911 459.65 361.057 459.157 362.193 458.911 363.538 458.911 365.091 458.911 366.682 459.152 368.055 459.635 369.21 460.118 370.366 460.8 371.26 461.681 371.895 462.571 372.529 463.617 372.847 464.82 372.847 465.625 372.847 466.354 372.7 467.007 372.406 467.67 372.103 468.224 371.672 468.669 371.114 469.124 370.555 469.441 369.883 469.621 369.097H473.755C473.603 370.508 473.144 371.767 472.377 372.875 471.61 373.983 470.582 374.854 469.294 375.489 468.016 376.123 466.515 376.44 464.792 376.44ZM487.7 376.44C485.55 376.44 483.699 375.981 482.146 375.062 480.602 374.134 479.409 372.832 478.566 371.156 477.733 369.471 477.316 367.496 477.316 365.233 477.316 362.998 477.733 361.028 478.566 359.324 479.409 357.619 480.583 356.289 482.089 355.332 483.604 354.376 485.375 353.898 487.402 353.898 488.633 353.898 489.826 354.101 490.981 354.509 492.136 354.916 493.173 355.555 494.092 356.426 495.011 357.297 495.735 358.429 496.265 359.821 496.796 361.204 497.061 362.884 497.061 364.864V366.369H479.717V363.188H492.899C492.899 362.07 492.672 361.08 492.217 360.219 491.762 359.348 491.123 358.661 490.299 358.159 489.485 357.657 488.529 357.406 487.43 357.406 486.237 357.406 485.195 357.7 484.305 358.287 483.424 358.865 482.743 359.622 482.26 360.56 481.786 361.488 481.549 362.496 481.549 363.585V366.071C481.549 367.529 481.805 368.77 482.316 369.793 482.837 370.815 483.562 371.597 484.49 372.136 485.418 372.667 486.502 372.932 487.743 372.932 488.547 372.932 489.281 372.818 489.944 372.591 490.607 372.354 491.18 372.004 491.663 371.54 492.146 371.076 492.515 370.503 492.771 369.821L496.791 370.545C496.469 371.729 495.891 372.766 495.058 373.656 494.234 374.537 493.197 375.223 491.947 375.716 490.707 376.199 489.291 376.44 487.7 376.44ZM518.123 359.509 514.273 360.19C514.112 359.698 513.856 359.229 513.506 358.784 513.165 358.339 512.701 357.974 512.114 357.69 511.527 357.406 510.793 357.264 509.912 357.264 508.71 357.264 507.706 357.534 506.901 358.074 506.096 358.604 505.694 359.291 505.694 360.134 505.694 360.863 505.963 361.45 506.503 361.895 507.043 362.34 507.914 362.705 509.117 362.989L512.583 363.784C514.59 364.248 516.087 364.963 517.071 365.929 518.056 366.895 518.549 368.15 518.549 369.693 518.549 371 518.17 372.165 517.412 373.188 516.664 374.201 515.618 374.996 514.273 375.574 512.938 376.152 511.39 376.44 509.628 376.44 507.185 376.44 505.192 375.92 503.648 374.878 502.105 373.827 501.158 372.335 500.807 370.403L504.912 369.778C505.168 370.848 505.694 371.658 506.489 372.207 507.284 372.747 508.321 373.017 509.6 373.017 510.992 373.017 512.105 372.728 512.938 372.151 513.771 371.563 514.188 370.848 514.188 370.006 514.188 369.324 513.932 368.751 513.421 368.287 512.919 367.823 512.147 367.473 511.105 367.236L507.412 366.426C505.376 365.962 503.871 365.223 502.895 364.21 501.929 363.197 501.446 361.914 501.446 360.361 501.446 359.073 501.806 357.946 502.526 356.98 503.246 356.014 504.24 355.261 505.509 354.722 506.778 354.172 508.231 353.898 509.87 353.898 512.228 353.898 514.084 354.409 515.438 355.432 516.792 356.445 517.687 357.804 518.123 359.509ZM539.568 359.509 535.718 360.19C535.557 359.698 535.302 359.229 534.951 358.784 534.61 358.339 534.146 357.974 533.559 357.69 532.972 357.406 532.238 357.264 531.358 357.264 530.155 357.264 529.151 357.534 528.346 358.074 527.541 358.604 527.139 359.291 527.139 360.134 527.139 360.863 527.409 361.45 527.949 361.895 528.488 362.34 529.359 362.705 530.562 362.989L534.028 363.784C536.036 364.248 537.532 364.963 538.517 365.929 539.502 366.895 539.994 368.15 539.994 369.693 539.994 371 539.615 372.165 538.858 373.188 538.109 374.201 537.063 374.996 535.718 375.574 534.383 376.152 532.835 376.44 531.074 376.44 528.63 376.44 526.637 375.92 525.093 374.878 523.55 373.827 522.603 372.335 522.252 370.403L526.358 369.778C526.613 370.848 527.139 371.658 527.934 372.207 528.73 372.747 529.767 373.017 531.045 373.017 532.437 373.017 533.55 372.728 534.383 372.151 535.217 371.563 535.633 370.848 535.633 370.006 535.633 369.324 535.377 368.751 534.866 368.287 534.364 367.823 533.592 367.473 532.551 367.236L528.858 366.426C526.822 365.962 525.316 365.223 524.341 364.21 523.375 363.197 522.892 361.914 522.892 360.361 522.892 359.073 523.252 357.946 523.971 356.98 524.691 356.014 525.685 355.261 526.954 354.722 528.223 354.172 529.677 353.898 531.315 353.898 533.673 353.898 535.529 354.409 536.883 355.432 538.237 356.445 539.132 357.804 539.568 359.509ZM558.133 346.909 566.23 370.602H566.556L574.653 346.909H579.397L568.929 376H563.858L553.389 346.909H558.133ZM583.598 376V346.909H593.968C596.231 346.909 598.106 347.321 599.593 348.145 601.079 348.969 602.192 350.096 602.931 351.526 603.669 352.946 604.039 354.546 604.039 356.327 604.039 358.116 603.665 359.726 602.917 361.156 602.178 362.577 601.06 363.704 599.564 364.537 598.078 365.361 596.207 365.773 593.953 365.773H586.823V362.051H593.556C594.986 362.051 596.146 361.805 597.036 361.312 597.926 360.811 598.579 360.129 598.996 359.267 599.413 358.405 599.621 357.425 599.621 356.327 599.621 355.228 599.413 354.253 598.996 353.401 598.579 352.548 597.921 351.881 597.022 351.398 596.132 350.915 594.957 350.673 593.499 350.673H587.988V376H583.598ZM632.664 346.909V376H628.63L613.843 354.665H613.574V376H609.184V346.909H613.247L628.048 368.273H628.318V346.909H632.664Z" fill="#000000"/><path d="M270.062 561.551C269.911 560.206 269.286 559.165 268.188 558.426 267.089 557.678 265.706 557.304 264.04 557.304 262.847 557.304 261.814 557.493 260.943 557.872 260.072 558.241 259.395 558.753 258.912 559.406 258.438 560.05 258.202 560.784 258.202 561.608 258.202 562.299 258.363 562.896 258.685 563.398 259.016 563.9 259.447 564.321 259.977 564.662 260.517 564.993 261.095 565.273 261.71 565.5 262.326 565.718 262.918 565.898 263.486 566.04L266.327 566.778C267.255 567.006 268.206 567.313 269.182 567.702 270.157 568.09 271.062 568.601 271.895 569.236 272.728 569.87 273.401 570.656 273.912 571.594 274.433 572.531 274.693 573.653 274.693 574.96 274.693 576.608 274.267 578.071 273.415 579.349 272.572 580.628 271.346 581.636 269.736 582.375 268.135 583.114 266.199 583.483 263.926 583.483 261.748 583.483 259.864 583.137 258.273 582.446 256.682 581.755 255.437 580.775 254.537 579.506 253.637 578.227 253.14 576.712 253.045 574.96H257.449C257.534 576.011 257.875 576.887 258.472 577.588 259.078 578.279 259.849 578.795 260.787 579.136 261.734 579.468 262.771 579.634 263.898 579.634 265.138 579.634 266.241 579.439 267.207 579.051 268.183 578.653 268.95 578.104 269.509 577.403 270.067 576.693 270.347 575.865 270.347 574.918 270.347 574.056 270.1 573.35 269.608 572.801 269.125 572.252 268.467 571.797 267.634 571.438 266.81 571.078 265.877 570.76 264.835 570.486L261.398 569.548C259.068 568.914 257.222 567.981 255.858 566.75 254.504 565.519 253.827 563.89 253.827 561.864 253.827 560.187 254.281 558.724 255.19 557.474 256.099 556.224 257.33 555.254 258.884 554.562 260.437 553.862 262.188 553.511 264.139 553.511 266.109 553.511 267.847 553.857 269.352 554.548 270.867 555.24 272.061 556.191 272.932 557.403 273.803 558.606 274.258 559.989 274.295 561.551H270.062ZM279.597 583V561.182H283.844V583H279.597ZM281.742 557.815C281.004 557.815 280.369 557.569 279.839 557.077 279.318 556.575 279.058 555.978 279.058 555.287 279.058 554.586 279.318 553.99 279.839 553.497 280.369 552.995 281.004 552.744 281.742 552.744 282.481 552.744 283.111 552.995 283.631 553.497 284.162 553.99 284.427 554.586 284.427 555.287 284.427 555.978 284.162 556.575 283.631 557.077 283.111 557.569 282.481 557.815 281.742 557.815ZM299.743 561.182V564.591H287.825V561.182H299.743ZM291.021 555.955H295.268V576.594C295.268 577.418 295.392 578.038 295.638 578.455 295.884 578.862 296.201 579.141 296.589 579.293 296.987 579.435 297.418 579.506 297.882 579.506 298.223 579.506 298.521 579.482 298.777 579.435 299.033 579.387 299.232 579.349 299.374 579.321L300.141 582.83C299.894 582.924 299.544 583.019 299.089 583.114 298.635 583.218 298.067 583.275 297.385 583.284 296.268 583.303 295.226 583.104 294.26 582.688 293.294 582.271 292.513 581.627 291.916 580.756 291.32 579.884 291.021 578.791 291.021 577.474V555.955ZM313.61 583.44C311.46 583.44 309.609 582.981 308.056 582.062 306.513 581.134 305.319 579.832 304.477 578.156 303.643 576.471 303.227 574.496 303.227 572.233 303.227 569.998 303.643 568.028 304.477 566.324 305.319 564.619 306.494 563.289 307.999 562.332 309.514 561.376 311.285 560.898 313.312 560.898 314.543 560.898 315.736 561.101 316.891 561.509 318.047 561.916 319.084 562.555 320.002 563.426 320.921 564.297 321.645 565.429 322.175 566.821 322.706 568.204 322.971 569.884 322.971 571.864V573.369H305.627V570.188H318.809C318.809 569.07 318.582 568.08 318.127 567.219 317.673 566.348 317.033 565.661 316.21 565.159 315.395 564.657 314.439 564.406 313.34 564.406 312.147 564.406 311.105 564.7 310.215 565.287 309.335 565.865 308.653 566.622 308.17 567.56 307.696 568.488 307.46 569.496 307.46 570.585V573.071C307.46 574.529 307.715 575.77 308.227 576.793 308.747 577.815 309.472 578.597 310.4 579.136 311.328 579.667 312.412 579.932 313.653 579.932 314.458 579.932 315.192 579.818 315.854 579.591 316.517 579.354 317.09 579.004 317.573 578.54 318.056 578.076 318.425 577.503 318.681 576.821L322.701 577.545C322.379 578.729 321.801 579.766 320.968 580.656 320.144 581.537 319.107 582.223 317.857 582.716 316.617 583.199 315.201 583.44 313.61 583.44ZM340.538 568.866V572.545H327.641V568.866H340.538ZM356.384 561.182V564.591H344.466V561.182H356.384ZM347.662 555.955H351.909V576.594C351.909 577.418 352.032 578.038 352.278 578.455 352.525 578.862 352.842 579.141 353.23 579.293 353.628 579.435 354.059 579.506 354.523 579.506 354.864 579.506 355.162 579.482 355.418 579.435 355.673 579.387 355.872 579.349 356.014 579.321L356.781 582.83C356.535 582.924 356.185 583.019 355.73 583.114 355.276 583.218 354.707 583.275 354.026 583.284 352.908 583.303 351.866 583.104 350.901 582.688 349.935 582.271 349.153 581.627 348.557 580.756 347.96 579.884 347.662 578.791 347.662 577.474V555.955ZM370.038 583.44C367.992 583.44 366.207 582.972 364.683 582.034 363.158 581.097 361.974 579.785 361.131 578.099 360.289 576.414 359.867 574.444 359.867 572.19 359.867 569.927 360.289 567.948 361.131 566.253 361.974 564.558 363.158 563.241 364.683 562.304 366.207 561.366 367.992 560.898 370.038 560.898 372.083 560.898 373.868 561.366 375.393 562.304 376.917 563.241 378.101 564.558 378.944 566.253 379.787 567.948 380.208 569.927 380.208 572.19 380.208 574.444 379.787 576.414 378.944 578.099 378.101 579.785 376.917 581.097 375.393 582.034 373.868 582.972 372.083 583.44 370.038 583.44ZM370.052 579.875C371.378 579.875 372.476 579.525 373.347 578.824 374.219 578.123 374.862 577.19 375.279 576.026 375.705 574.861 375.918 573.578 375.918 572.176 375.918 570.784 375.705 569.506 375.279 568.341 374.862 567.167 374.219 566.224 373.347 565.514 372.476 564.804 371.378 564.449 370.052 564.449 368.717 564.449 367.609 564.804 366.728 565.514 365.857 566.224 365.208 567.167 364.782 568.341 364.365 569.506 364.157 570.784 364.157 572.176 364.157 573.578 364.365 574.861 364.782 576.026 365.208 577.19 365.857 578.123 366.728 578.824 367.609 579.525 368.717 579.875 370.052 579.875ZM397.804 568.866V572.545H384.906V568.866H397.804ZM419.814 566.509 415.964 567.19C415.804 566.698 415.548 566.229 415.197 565.784 414.857 565.339 414.393 564.974 413.805 564.69 413.218 564.406 412.484 564.264 411.604 564.264 410.401 564.264 409.397 564.534 408.592 565.074 407.787 565.604 407.385 566.291 407.385 567.134 407.385 567.863 407.655 568.45 408.195 568.895 408.734 569.34 409.606 569.705 410.808 569.989L414.274 570.784C416.282 571.248 417.778 571.963 418.763 572.929 419.748 573.895 420.24 575.15 420.24 576.693 420.24 578 419.861 579.165 419.104 580.188 418.356 581.201 417.309 581.996 415.964 582.574 414.629 583.152 413.081 583.44 411.32 583.44 408.876 583.44 406.883 582.92 405.339 581.878 403.796 580.827 402.849 579.335 402.499 577.403L406.604 576.778C406.859 577.848 407.385 578.658 408.18 579.207 408.976 579.747 410.013 580.017 411.291 580.017 412.683 580.017 413.796 579.728 414.629 579.151 415.463 578.563 415.879 577.848 415.879 577.006 415.879 576.324 415.624 575.751 415.112 575.287 414.61 574.823 413.839 574.473 412.797 574.236L409.104 573.426C407.068 572.962 405.562 572.223 404.587 571.21 403.621 570.197 403.138 568.914 403.138 567.361 403.138 566.073 403.498 564.946 404.217 563.98 404.937 563.014 405.931 562.261 407.2 561.722 408.469 561.172 409.923 560.898 411.561 560.898 413.919 560.898 415.775 561.409 417.129 562.432 418.483 563.445 419.378 564.804 419.814 566.509ZM424.91 583V561.182H429.157V583H424.91ZM427.055 557.815C426.316 557.815 425.682 557.569 425.151 557.077 424.63 556.575 424.37 555.978 424.37 555.287 424.37 554.586 424.63 553.99 425.151 553.497 425.682 552.995 426.316 552.744 427.055 552.744 427.793 552.744 428.423 552.995 428.944 553.497 429.474 553.99 429.739 554.586 429.739 555.287 429.739 555.978 429.474 556.575 428.944 557.077 428.423 557.569 427.793 557.815 427.055 557.815ZM445.055 561.182V564.591H433.138V561.182H445.055ZM436.334 555.955H440.581V576.594C440.581 577.418 440.704 578.038 440.95 578.455 441.196 578.862 441.514 579.141 441.902 579.293 442.3 579.435 442.731 579.506 443.195 579.506 443.536 579.506 443.834 579.482 444.089 579.435 444.345 579.387 444.544 579.349 444.686 579.321L445.453 582.83C445.207 582.924 444.857 583.019 444.402 583.114 443.947 583.218 443.379 583.275 442.697 583.284 441.58 583.303 440.538 583.104 439.572 582.688 438.607 582.271 437.825 581.627 437.229 580.756 436.632 579.884 436.334 578.791 436.334 577.474V555.955ZM458.923 583.44C456.773 583.44 454.922 582.981 453.369 582.062 451.825 581.134 450.632 579.832 449.789 578.156 448.956 576.471 448.539 574.496 448.539 572.233 448.539 569.998 448.956 568.028 449.789 566.324 450.632 564.619 451.806 563.289 453.312 562.332 454.827 561.376 456.598 560.898 458.624 560.898 459.855 560.898 461.049 561.101 462.204 561.509 463.359 561.916 464.396 562.555 465.315 563.426 466.233 564.297 466.958 565.429 467.488 566.821 468.018 568.204 468.283 569.884 468.283 571.864V573.369H450.94V570.188H464.121C464.121 569.07 463.894 568.08 463.44 567.219 462.985 566.348 462.346 565.661 461.522 565.159 460.708 564.657 459.751 564.406 458.653 564.406 457.46 564.406 456.418 564.7 455.528 565.287 454.647 565.865 453.965 566.622 453.482 567.56 453.009 568.488 452.772 569.496 452.772 570.585V573.071C452.772 574.529 453.028 575.77 453.539 576.793 454.06 577.815 454.784 578.597 455.712 579.136 456.64 579.667 457.725 579.932 458.965 579.932 459.77 579.932 460.504 579.818 461.167 579.591 461.83 579.354 462.403 579.004 462.886 578.54 463.369 578.076 463.738 577.503 463.994 576.821L468.013 577.545C467.692 578.729 467.114 579.766 466.281 580.656 465.457 581.537 464.42 582.223 463.17 582.716 461.929 583.199 460.513 583.44 458.923 583.44ZM486.465 553.909 494.562 577.602H494.888L502.985 553.909H507.729L497.261 583H492.19L481.721 553.909H486.465ZM511.93 583V553.909H522.3C524.563 553.909 526.438 554.321 527.925 555.145 529.411 555.969 530.524 557.096 531.263 558.526 532.001 559.946 532.371 561.546 532.371 563.327 532.371 565.116 531.997 566.726 531.249 568.156 530.51 569.577 529.393 570.704 527.896 571.537 526.41 572.361 524.539 572.773 522.286 572.773H515.155V569.051H521.888C523.318 569.051 524.478 568.805 525.368 568.312 526.258 567.811 526.911 567.129 527.328 566.267 527.745 565.405 527.953 564.425 527.953 563.327 527.953 562.228 527.745 561.253 527.328 560.401 526.911 559.548 526.253 558.881 525.354 558.398 524.464 557.915 523.289 557.673 521.831 557.673H516.32V583H511.93ZM560.996 553.909V583H556.962L542.175 561.665H541.906V583H537.516V553.909H541.579L556.38 575.273H556.65V553.909H560.996Z" fill="#000000"/><path d="M253.501 797V767.909H263.87C266.133 767.909 268.008 768.321 269.495 769.145 270.982 769.969 272.094 771.096 272.833 772.526 273.572 773.946 273.941 775.546 273.941 777.327 273.941 779.116 273.567 780.726 272.819 782.156 272.08 783.577 270.963 784.704 269.467 785.537 267.98 786.361 266.11 786.773 263.856 786.773H256.725V783.051H263.458C264.888 783.051 266.048 782.805 266.938 782.312 267.828 781.811 268.482 781.129 268.898 780.267 269.315 779.405 269.523 778.425 269.523 777.327 269.523 776.228 269.315 775.253 268.898 774.401 268.482 773.548 267.824 772.881 266.924 772.398 266.034 771.915 264.86 771.673 263.401 771.673H257.89V797H253.501ZM287.876 797.44C285.726 797.44 283.875 796.981 282.322 796.062 280.778 795.134 279.585 793.832 278.742 792.156 277.909 790.471 277.492 788.496 277.492 786.233 277.492 783.998 277.909 782.028 278.742 780.324 279.585 778.619 280.759 777.289 282.265 776.332 283.78 775.376 285.551 774.898 287.577 774.898 288.808 774.898 290.002 775.101 291.157 775.509 292.312 775.916 293.349 776.555 294.268 777.426 295.186 778.297 295.911 779.429 296.441 780.821 296.971 782.204 297.237 783.884 297.237 785.864V787.369H279.893V784.188H293.075C293.075 783.07 292.847 782.08 292.393 781.219 291.938 780.348 291.299 779.661 290.475 779.159 289.661 778.657 288.704 778.406 287.606 778.406 286.413 778.406 285.371 778.7 284.481 779.287 283.6 779.865 282.918 780.622 282.435 781.56 281.962 782.488 281.725 783.496 281.725 784.585V787.071C281.725 788.529 281.981 789.77 282.492 790.793 283.013 791.815 283.737 792.597 284.665 793.136 285.594 793.667 286.678 793.932 287.918 793.932 288.723 793.932 289.457 793.818 290.12 793.591 290.783 793.354 291.356 793.004 291.839 792.54 292.322 792.076 292.691 791.503 292.947 790.821L296.967 791.545C296.645 792.729 296.067 793.766 295.234 794.656 294.41 795.537 293.373 796.223 292.123 796.716 290.882 797.199 289.467 797.44 287.876 797.44ZM301.949 797V775.182H306.054V778.648H306.281C306.679 777.473 307.38 776.55 308.384 775.878 309.397 775.196 310.543 774.855 311.821 774.855 312.086 774.855 312.399 774.865 312.759 774.884 313.128 774.902 313.417 774.926 313.625 774.955V779.017C313.455 778.97 313.152 778.918 312.716 778.861 312.28 778.795 311.845 778.761 311.409 778.761 310.405 778.761 309.51 778.974 308.724 779.401 307.948 779.817 307.332 780.4 306.878 781.148 306.423 781.886 306.196 782.729 306.196 783.676V797H301.949ZM333.65 780.509 329.8 781.19C329.639 780.698 329.384 780.229 329.033 779.784 328.692 779.339 328.228 778.974 327.641 778.69 327.054 778.406 326.32 778.264 325.44 778.264 324.237 778.264 323.233 778.534 322.428 779.074 321.623 779.604 321.221 780.291 321.221 781.134 321.221 781.863 321.491 782.45 322.031 782.895 322.57 783.34 323.442 783.705 324.644 783.989L328.11 784.784C330.118 785.248 331.614 785.963 332.599 786.929 333.584 787.895 334.076 789.15 334.076 790.693 334.076 792 333.697 793.165 332.94 794.188 332.192 795.201 331.145 795.996 329.8 796.574 328.465 797.152 326.917 797.44 325.156 797.44 322.712 797.44 320.719 796.92 319.175 795.878 317.632 794.827 316.685 793.335 316.335 791.403L320.44 790.778C320.695 791.848 321.221 792.658 322.016 793.207 322.812 793.747 323.849 794.017 325.127 794.017 326.519 794.017 327.632 793.728 328.465 793.151 329.299 792.563 329.715 791.848 329.715 791.006 329.715 790.324 329.46 789.751 328.948 789.287 328.446 788.823 327.674 788.473 326.633 788.236L322.94 787.426C320.904 786.962 319.398 786.223 318.423 785.21 317.457 784.197 316.974 782.914 316.974 781.361 316.974 780.073 317.334 778.946 318.053 777.98 318.773 777.014 319.767 776.261 321.036 775.722 322.305 775.172 323.759 774.898 325.397 774.898 327.755 774.898 329.611 775.409 330.965 776.432 332.319 777.445 333.214 778.804 333.65 780.509ZM347.936 797.44C345.891 797.44 344.106 796.972 342.581 796.034 341.056 795.097 339.873 793.785 339.03 792.099 338.187 790.414 337.766 788.444 337.766 786.19 337.766 783.927 338.187 781.948 339.03 780.253 339.873 778.558 341.056 777.241 342.581 776.304 344.106 775.366 345.891 774.898 347.936 774.898 349.982 774.898 351.767 775.366 353.291 776.304 354.816 777.241 356 778.558 356.842 780.253 357.685 781.948 358.107 783.927 358.107 786.19 358.107 788.444 357.685 790.414 356.842 792.099 356 793.785 354.816 795.097 353.291 796.034 351.767 796.972 349.982 797.44 347.936 797.44ZM347.95 793.875C349.276 793.875 350.375 793.525 351.246 792.824 352.117 792.123 352.761 791.19 353.178 790.026 353.604 788.861 353.817 787.578 353.817 786.176 353.817 784.784 353.604 783.506 353.178 782.341 352.761 781.167 352.117 780.224 351.246 779.514 350.375 778.804 349.276 778.449 347.95 778.449 346.615 778.449 345.507 778.804 344.626 779.514 343.755 780.224 343.107 781.167 342.68 782.341 342.264 783.506 342.055 784.784 342.055 786.176 342.055 787.578 342.264 788.861 342.68 790.026 343.107 791.19 343.755 792.123 344.626 792.824 345.507 793.525 346.615 793.875 347.95 793.875ZM367.094 784.045V797H362.847V775.182H366.924V778.733H367.194C367.696 777.578 368.482 776.65 369.552 775.949 370.631 775.248 371.99 774.898 373.629 774.898 375.115 774.898 376.417 775.21 377.535 775.835 378.652 776.451 379.519 777.369 380.134 778.591 380.75 779.812 381.058 781.323 381.058 783.122V797H376.81V783.634C376.81 782.052 376.398 780.816 375.575 779.926 374.751 779.027 373.619 778.577 372.18 778.577 371.195 778.577 370.319 778.79 369.552 779.216 368.794 779.642 368.193 780.267 367.748 781.091 367.312 781.905 367.094 782.89 367.094 784.045ZM393.103 797.483C391.72 797.483 390.47 797.227 389.353 796.716 388.236 796.195 387.35 795.442 386.697 794.457 386.053 793.473 385.731 792.265 385.731 790.835 385.731 789.604 385.968 788.591 386.441 787.795 386.915 787 387.554 786.37 388.359 785.906 389.164 785.442 390.063 785.092 391.058 784.855 392.052 784.618 393.065 784.438 394.097 784.315 395.404 784.164 396.465 784.041 397.279 783.946 398.094 783.842 398.685 783.676 399.055 783.449 399.424 783.222 399.609 782.852 399.609 782.341V782.241C399.609 781.001 399.258 780.04 398.558 779.358 397.866 778.676 396.834 778.335 395.461 778.335 394.031 778.335 392.904 778.652 392.08 779.287 391.266 779.912 390.702 780.608 390.39 781.375L386.398 780.466C386.872 779.14 387.563 778.07 388.472 777.256 389.391 776.432 390.447 775.835 391.64 775.466 392.833 775.087 394.088 774.898 395.404 774.898 396.275 774.898 397.199 775.002 398.174 775.21 399.159 775.409 400.077 775.778 400.93 776.318 401.791 776.858 402.497 777.63 403.046 778.634 403.595 779.628 403.87 780.92 403.87 782.511V797H399.722V794.017H399.552C399.277 794.566 398.865 795.106 398.316 795.636 397.767 796.167 397.061 796.607 396.2 796.957 395.338 797.308 394.306 797.483 393.103 797.483ZM394.026 794.074C395.201 794.074 396.204 793.842 397.038 793.378 397.88 792.914 398.52 792.308 398.955 791.56 399.4 790.802 399.623 789.992 399.623 789.131V786.318C399.471 786.47 399.178 786.612 398.742 786.744 398.316 786.867 397.828 786.976 397.279 787.071 396.73 787.156 396.195 787.237 395.674 787.312 395.153 787.379 394.718 787.436 394.367 787.483 393.543 787.587 392.79 787.762 392.109 788.009 391.436 788.255 390.897 788.61 390.489 789.074 390.092 789.528 389.893 790.134 389.893 790.892 389.893 791.943 390.281 792.739 391.058 793.278 391.834 793.809 392.824 794.074 394.026 794.074ZM413.774 767.909V797H409.527V767.909H413.774ZM432.957 767.909 441.054 791.602H441.381L449.477 767.909H454.222L443.753 797H438.682L428.213 767.909H432.957ZM458.423 797V767.909H468.792C471.055 767.909 472.93 768.321 474.417 769.145 475.904 769.969 477.016 771.096 477.755 772.526 478.494 773.946 478.863 775.546 478.863 777.327 478.863 779.116 478.489 780.726 477.741 782.156 477.002 783.577 475.885 784.704 474.388 785.537 472.902 786.361 471.031 786.773 468.778 786.773H461.647V783.051H468.38C469.81 783.051 470.97 782.805 471.86 782.312 472.75 781.811 473.404 781.129 473.82 780.267 474.237 779.405 474.445 778.425 474.445 777.327 474.445 776.228 474.237 775.253 473.82 774.401 473.404 773.548 472.746 772.881 471.846 772.398 470.956 771.915 469.781 771.673 468.323 771.673H462.812V797H458.423ZM507.489 767.909V797H503.455L488.668 775.665H488.398V797H484.009V767.909H488.071L502.872 789.273H503.142V767.909H507.489Z" fill="#000000"/><path d="M253.446 981.909H258.773L268.034 1004.52H268.375L277.636 981.909H282.963V1011H278.787V989.949H278.517L269.938 1010.96H266.472L257.892 989.935H257.622V1011H253.446V981.909ZM298.194 1011.44C296.148 1011.44 294.363 1010.97 292.839 1010.03 291.314 1009.1 290.13 1007.79 289.288 1006.1 288.445 1004.41 288.023 1002.44 288.023 1000.19 288.023 997.927 288.445 995.948 289.288 994.253 290.13 992.558 291.314 991.241 292.839 990.304 294.363 989.366 296.148 988.898 298.194 988.898 300.239 988.898 302.024 989.366 303.549 990.304 305.074 991.241 306.257 992.558 307.1 994.253 307.943 995.948 308.364 997.927 308.364 1000.19 308.364 1002.44 307.943 1004.41 307.1 1006.1 306.257 1007.79 305.074 1009.1 303.549 1010.03 302.024 1010.97 300.239 1011.44 298.194 1011.44ZM298.208 1007.88C299.534 1007.88 300.632 1007.52 301.504 1006.82 302.375 1006.12 303.019 1005.19 303.435 1004.03 303.862 1002.86 304.075 1001.58 304.075 1000.18 304.075 998.784 303.862 997.506 303.435 996.341 303.019 995.167 302.375 994.224 301.504 993.514 300.632 992.804 299.534 992.449 298.208 992.449 296.873 992.449 295.765 992.804 294.884 993.514 294.013 994.224 293.364 995.167 292.938 996.341 292.522 997.506 292.313 998.784 292.313 1000.18 292.313 1001.58 292.522 1002.86 292.938 1004.03 293.364 1005.19 294.013 1006.12 294.884 1006.82 295.765 1007.52 296.873 1007.88 298.208 1007.88ZM313.446 1011V981.909H317.693V992.719H317.949C318.195 992.264 318.55 991.739 319.014 991.142 319.478 990.545 320.122 990.025 320.946 989.58 321.77 989.125 322.859 988.898 324.213 988.898 325.974 988.898 327.546 989.343 328.929 990.233 330.312 991.123 331.396 992.406 332.182 994.082 332.977 995.759 333.375 997.776 333.375 1000.13 333.375 1002.49 332.982 1004.51 332.196 1006.2 331.41 1007.87 330.33 1009.17 328.957 1010.08 327.584 1010.98 326.017 1011.43 324.256 1011.43 322.93 1011.43 321.846 1011.2 321.003 1010.76 320.17 1010.31 319.516 1009.79 319.043 1009.2 318.569 1008.6 318.205 1008.07 317.949 1007.61H317.594V1011H313.446ZM317.608 1000.09C317.608 1001.62 317.83 1002.97 318.276 1004.12 318.721 1005.28 319.365 1006.18 320.207 1006.84 321.05 1007.48 322.082 1007.8 323.304 1007.8 324.573 1007.8 325.634 1007.47 326.486 1006.8 327.338 1006.11 327.982 1005.19 328.418 1004.03 328.863 1002.86 329.085 1001.55 329.085 1000.09 329.085 998.652 328.867 997.359 328.432 996.213 328.006 995.067 327.362 994.163 326.5 993.5 325.648 992.837 324.582 992.506 323.304 992.506 322.073 992.506 321.031 992.823 320.179 993.457 319.336 994.092 318.697 994.977 318.261 996.114 317.826 997.25 317.608 998.576 317.608 1000.09ZM338.144 1011V989.182H342.391V1011H338.144ZM340.289 985.815C339.55 985.815 338.916 985.569 338.386 985.077 337.865 984.575 337.604 983.978 337.604 983.287 337.604 982.586 337.865 981.99 338.386 981.497 338.916 980.995 339.55 980.744 340.289 980.744 341.028 980.744 341.657 980.995 342.178 981.497 342.709 981.99 342.974 982.586 342.974 983.287 342.974 983.978 342.709 984.575 342.178 985.077 341.657 985.569 341.028 985.815 340.289 985.815ZM352.352 981.909V1011H348.105V981.909H352.352ZM367.469 1011.44C365.32 1011.44 363.469 1010.98 361.915 1010.06 360.372 1009.13 359.179 1007.83 358.336 1006.16 357.503 1004.47 357.086 1002.5 357.086 1000.23 357.086 997.998 357.503 996.028 358.336 994.324 359.179 992.619 360.353 991.289 361.859 990.332 363.374 989.376 365.145 988.898 367.171 988.898 368.402 988.898 369.595 989.101 370.751 989.509 371.906 989.916 372.943 990.555 373.862 991.426 374.78 992.297 375.504 993.429 376.035 994.821 376.565 996.204 376.83 997.884 376.83 999.864V1001.37H359.487V998.188H372.668C372.668 997.07 372.441 996.08 371.987 995.219 371.532 994.348 370.893 993.661 370.069 993.159 369.254 992.657 368.298 992.406 367.2 992.406 366.006 992.406 364.965 992.7 364.075 993.287 363.194 993.865 362.512 994.622 362.029 995.56 361.556 996.488 361.319 997.496 361.319 998.585V1001.07C361.319 1002.53 361.575 1003.77 362.086 1004.79 362.607 1005.82 363.331 1006.6 364.259 1007.14 365.187 1007.67 366.272 1007.93 367.512 1007.93 368.317 1007.93 369.051 1007.82 369.714 1007.59 370.377 1007.35 370.95 1007 371.433 1006.54 371.915 1006.08 372.285 1005.5 372.54 1004.82L376.56 1005.55C376.238 1006.73 375.661 1007.77 374.827 1008.66 374.004 1009.54 372.967 1010.22 371.717 1010.72 370.476 1011.2 369.06 1011.44 367.469 1011.44ZM395.012 981.909 403.109 1005.6H403.435L411.532 981.909H416.276L405.808 1011H400.737L390.268 981.909H395.012ZM420.477 1011V981.909H430.847C433.11 981.909 434.985 982.321 436.472 983.145 437.958 983.969 439.071 985.096 439.81 986.526 440.548 987.946 440.918 989.546 440.918 991.327 440.918 993.116 440.544 994.726 439.795 996.156 439.057 997.577 437.939 998.704 436.443 999.537 434.956 1000.36 433.086 1000.77 430.832 1000.77H423.702V997.051H430.435C431.865 997.051 433.025 996.805 433.915 996.312 434.805 995.811 435.458 995.129 435.875 994.267 436.292 993.405 436.5 992.425 436.5 991.327 436.5 990.228 436.292 989.253 435.875 988.401 435.458 987.548 434.8 986.881 433.901 986.398 433.01 985.915 431.836 985.673 430.378 985.673H424.866V1011H420.477ZM469.543 981.909V1011H465.509L450.722 989.665H450.452V1011H446.063V981.909H450.126L464.927 1003.27H465.197V981.909H469.543Z" fill="#000000"/><path d="M253.376 1225V1195.91H264.029C266.094 1195.91 267.803 1196.25 269.157 1196.93 270.511 1197.6 271.524 1198.52 272.197 1199.67 272.869 1200.82 273.205 1202.11 273.205 1203.55 273.205 1204.76 272.983 1205.79 272.538 1206.62 272.093 1207.44 271.496 1208.11 270.748 1208.61 270.009 1209.1 269.195 1209.46 268.305 1209.69V1209.97C269.271 1210.02 270.213 1210.33 271.131 1210.91 272.059 1211.48 272.826 1212.29 273.433 1213.34 274.039 1214.39 274.342 1215.67 274.342 1217.17 274.342 1218.66 273.991 1220 273.29 1221.18 272.599 1222.35 271.529 1223.29 270.08 1223.98 268.631 1224.66 266.78 1225 264.526 1225H253.376ZM257.765 1221.24H264.1C266.202 1221.24 267.708 1220.83 268.617 1220.01 269.526 1219.2 269.981 1218.18 269.981 1216.96 269.981 1216.04 269.749 1215.2 269.285 1214.43 268.821 1213.66 268.158 1213.05 267.296 1212.6 266.444 1212.14 265.431 1211.92 264.256 1211.92H257.765V1221.24ZM257.765 1208.49H263.646C264.63 1208.49 265.516 1208.3 266.302 1207.93 267.097 1207.55 267.727 1207.02 268.191 1206.34 268.665 1205.64 268.901 1204.83 268.901 1203.89 268.901 1202.69 268.48 1201.68 267.637 1200.87 266.794 1200.05 265.502 1199.64 263.759 1199.64H257.765V1208.49ZM279.207 1225V1203.18H283.312V1206.65H283.539C283.937 1205.47 284.638 1204.55 285.641 1203.88 286.655 1203.2 287.8 1202.86 289.079 1202.86 289.344 1202.86 289.656 1202.86 290.016 1202.88 290.386 1202.9 290.674 1202.93 290.883 1202.95V1207.02C290.712 1206.97 290.409 1206.92 289.974 1206.86 289.538 1206.79 289.103 1206.76 288.667 1206.76 287.663 1206.76 286.768 1206.97 285.982 1207.4 285.206 1207.82 284.59 1208.4 284.136 1209.15 283.681 1209.89 283.454 1210.73 283.454 1211.68V1225H279.207ZM302.967 1225.44C300.922 1225.44 299.137 1224.97 297.612 1224.03 296.088 1223.1 294.904 1221.79 294.061 1220.1 293.218 1218.41 292.797 1216.44 292.797 1214.19 292.797 1211.93 293.218 1209.95 294.061 1208.25 294.904 1206.56 296.088 1205.24 297.612 1204.3 299.137 1203.37 300.922 1202.9 302.967 1202.9 305.013 1202.9 306.798 1203.37 308.322 1204.3 309.847 1205.24 311.031 1206.56 311.874 1208.25 312.716 1209.95 313.138 1211.93 313.138 1214.19 313.138 1216.44 312.716 1218.41 311.874 1220.1 311.031 1221.79 309.847 1223.1 308.322 1224.03 306.798 1224.97 305.013 1225.44 302.967 1225.44ZM302.982 1221.88C304.307 1221.88 305.406 1221.52 306.277 1220.82 307.148 1220.12 307.792 1219.19 308.209 1218.03 308.635 1216.86 308.848 1215.58 308.848 1214.18 308.848 1212.78 308.635 1211.51 308.209 1210.34 307.792 1209.17 307.148 1208.22 306.277 1207.51 305.406 1206.8 304.307 1206.45 302.982 1206.45 301.646 1206.45 300.538 1206.8 299.658 1207.51 298.786 1208.22 298.138 1209.17 297.712 1210.34 297.295 1211.51 297.087 1212.78 297.087 1214.18 297.087 1215.58 297.295 1216.86 297.712 1218.03 298.138 1219.19 298.786 1220.12 299.658 1220.82 300.538 1221.52 301.646 1221.88 302.982 1221.88ZM321.945 1225 315.524 1203.18H319.913L324.189 1219.2H324.402L328.692 1203.18H333.081L337.342 1219.13H337.555L341.803 1203.18H346.192L339.786 1225H335.453L331.021 1209.25H330.695L326.263 1225H321.945ZM366.572 1208.51 362.722 1209.19C362.561 1208.7 362.306 1208.23 361.955 1207.78 361.614 1207.34 361.15 1206.97 360.563 1206.69 359.976 1206.41 359.242 1206.26 358.362 1206.26 357.159 1206.26 356.155 1206.53 355.35 1207.07 354.545 1207.6 354.143 1208.29 354.143 1209.13 354.143 1209.86 354.413 1210.45 354.952 1210.89 355.492 1211.34 356.363 1211.7 357.566 1211.99L361.032 1212.78C363.04 1213.25 364.536 1213.96 365.521 1214.93 366.505 1215.89 366.998 1217.15 366.998 1218.69 366.998 1220 366.619 1221.16 365.862 1222.19 365.113 1223.2 364.067 1224 362.722 1224.57 361.387 1225.15 359.839 1225.44 358.077 1225.44 355.634 1225.44 353.641 1224.92 352.097 1223.88 350.554 1222.83 349.607 1221.34 349.256 1219.4L353.362 1218.78C353.617 1219.85 354.143 1220.66 354.938 1221.21 355.734 1221.75 356.771 1222.02 358.049 1222.02 359.441 1222.02 360.554 1221.73 361.387 1221.15 362.22 1220.56 362.637 1219.85 362.637 1219.01 362.637 1218.32 362.381 1217.75 361.87 1217.29 361.368 1216.82 360.596 1216.47 359.555 1216.24L355.862 1215.43C353.826 1214.96 352.32 1214.22 351.344 1213.21 350.379 1212.2 349.896 1210.91 349.896 1209.36 349.896 1208.07 350.255 1206.95 350.975 1205.98 351.695 1205.01 352.689 1204.26 353.958 1203.72 355.227 1203.17 356.681 1202.9 358.319 1202.9 360.677 1202.9 362.533 1203.41 363.887 1204.43 365.241 1205.45 366.136 1206.8 366.572 1208.51ZM381.071 1225.44C378.921 1225.44 377.07 1224.98 375.517 1224.06 373.973 1223.13 372.78 1221.83 371.938 1220.16 371.104 1218.47 370.688 1216.5 370.688 1214.23 370.688 1212 371.104 1210.03 371.938 1208.32 372.78 1206.62 373.955 1205.29 375.46 1204.33 376.975 1203.38 378.746 1202.9 380.773 1202.9 382.004 1202.9 383.197 1203.1 384.352 1203.51 385.508 1203.92 386.545 1204.55 387.463 1205.43 388.382 1206.3 389.106 1207.43 389.636 1208.82 390.167 1210.2 390.432 1211.88 390.432 1213.86V1215.37H373.088V1212.19H386.27C386.27 1211.07 386.043 1210.08 385.588 1209.22 385.134 1208.35 384.494 1207.66 383.67 1207.16 382.856 1206.66 381.9 1206.41 380.801 1206.41 379.608 1206.41 378.566 1206.7 377.676 1207.29 376.795 1207.86 376.114 1208.62 375.631 1209.56 375.157 1210.49 374.92 1211.5 374.92 1212.59V1215.07C374.92 1216.53 375.176 1217.77 375.688 1218.79 376.208 1219.82 376.933 1220.6 377.861 1221.14 378.789 1221.67 379.873 1221.93 381.114 1221.93 381.919 1221.93 382.652 1221.82 383.315 1221.59 383.978 1221.35 384.551 1221 385.034 1220.54 385.517 1220.08 385.886 1219.5 386.142 1218.82L390.162 1219.55C389.84 1220.73 389.262 1221.77 388.429 1222.66 387.605 1223.54 386.568 1224.22 385.318 1224.72 384.078 1225.2 382.662 1225.44 381.071 1225.44ZM395.144 1225V1203.18H399.249V1206.65H399.477C399.874 1205.47 400.575 1204.55 401.579 1203.88 402.592 1203.2 403.738 1202.86 405.016 1202.86 405.281 1202.86 405.594 1202.86 405.954 1202.88 406.323 1202.9 406.612 1202.93 406.82 1202.95V1207.02C406.65 1206.97 406.347 1206.92 405.911 1206.86 405.476 1206.79 405.04 1206.76 404.604 1206.76 403.601 1206.76 402.706 1206.97 401.92 1207.4 401.143 1207.82 400.528 1208.4 400.073 1209.15 399.619 1209.89 399.391 1210.73 399.391 1211.68V1225H395.144ZM422.062 1210.87V1214.55H409.164V1210.87H422.062ZM428.063 1225V1195.91H432.31V1206.72H432.566C432.812 1206.26 433.167 1205.74 433.631 1205.14 434.095 1204.55 434.739 1204.02 435.563 1203.58 436.387 1203.12 437.476 1202.9 438.83 1202.9 440.592 1202.9 442.164 1203.34 443.546 1204.23 444.929 1205.12 446.013 1206.41 446.799 1208.08 447.594 1209.76 447.992 1211.78 447.992 1214.13 447.992 1216.49 447.599 1218.51 446.813 1220.2 446.027 1221.87 444.948 1223.17 443.575 1224.08 442.201 1224.98 440.634 1225.43 438.873 1225.43 437.547 1225.43 436.463 1225.2 435.62 1224.76 434.787 1224.31 434.133 1223.79 433.66 1223.2 433.186 1222.6 432.822 1222.07 432.566 1221.61H432.211V1225H428.063ZM432.225 1214.09C432.225 1215.62 432.448 1216.97 432.893 1218.12 433.338 1219.28 433.982 1220.18 434.825 1220.84 435.667 1221.48 436.7 1221.8 437.921 1221.8 439.19 1221.8 440.251 1221.47 441.103 1220.8 441.955 1220.11 442.599 1219.19 443.035 1218.03 443.48 1216.86 443.702 1215.55 443.702 1214.09 443.702 1212.65 443.485 1211.36 443.049 1210.21 442.623 1209.07 441.979 1208.16 441.117 1207.5 440.265 1206.84 439.2 1206.51 437.921 1206.51 436.69 1206.51 435.648 1206.82 434.796 1207.46 433.953 1208.09 433.314 1208.98 432.879 1210.11 432.443 1211.25 432.225 1212.58 432.225 1214.09ZM459.111 1225.48C457.728 1225.48 456.478 1225.23 455.361 1224.72 454.243 1224.2 453.358 1223.44 452.705 1222.46 452.061 1221.47 451.739 1220.27 451.739 1218.84 451.739 1217.6 451.975 1216.59 452.449 1215.8 452.922 1215 453.562 1214.37 454.366 1213.91 455.171 1213.44 456.071 1213.09 457.065 1212.86 458.06 1212.62 459.073 1212.44 460.105 1212.32 461.412 1212.16 462.473 1212.04 463.287 1211.95 464.101 1211.84 464.693 1211.68 465.062 1211.45 465.432 1211.22 465.616 1210.85 465.616 1210.34V1210.24C465.616 1209 465.266 1208.04 464.565 1207.36 463.874 1206.68 462.842 1206.34 461.469 1206.34 460.039 1206.34 458.912 1206.65 458.088 1207.29 457.274 1207.91 456.71 1208.61 456.398 1209.38L452.406 1208.47C452.88 1207.14 453.571 1206.07 454.48 1205.26 455.399 1204.43 456.455 1203.84 457.648 1203.47 458.841 1203.09 460.096 1202.9 461.412 1202.9 462.283 1202.9 463.206 1203 464.182 1203.21 465.167 1203.41 466.085 1203.78 466.938 1204.32 467.799 1204.86 468.505 1205.63 469.054 1206.63 469.603 1207.63 469.878 1208.92 469.878 1210.51V1225H465.73V1222.02H465.56C465.285 1222.57 464.873 1223.11 464.324 1223.64 463.775 1224.17 463.069 1224.61 462.207 1224.96 461.346 1225.31 460.313 1225.48 459.111 1225.48ZM460.034 1222.07C461.208 1222.07 462.212 1221.84 463.045 1221.38 463.888 1220.91 464.527 1220.31 464.963 1219.56 465.408 1218.8 465.631 1217.99 465.631 1217.13V1214.32C465.479 1214.47 465.186 1214.61 464.75 1214.74 464.324 1214.87 463.836 1214.98 463.287 1215.07 462.738 1215.16 462.203 1215.24 461.682 1215.31 461.161 1215.38 460.725 1215.44 460.375 1215.48 459.551 1215.59 458.798 1215.76 458.116 1216.01 457.444 1216.25 456.904 1216.61 456.497 1217.07 456.099 1217.53 455.901 1218.13 455.901 1218.89 455.901 1219.94 456.289 1220.74 457.065 1221.28 457.842 1221.81 458.831 1222.07 460.034 1222.07ZM491.884 1208.51 488.035 1209.19C487.874 1208.7 487.618 1208.23 487.268 1207.78 486.927 1207.34 486.463 1206.97 485.876 1206.69 485.289 1206.41 484.555 1206.26 483.674 1206.26 482.471 1206.26 481.468 1206.53 480.663 1207.07 479.858 1207.6 479.455 1208.29 479.455 1209.13 479.455 1209.86 479.725 1210.45 480.265 1210.89 480.805 1211.34 481.676 1211.7 482.879 1211.99L486.344 1212.78C488.352 1213.25 489.848 1213.96 490.833 1214.93 491.818 1215.89 492.31 1217.15 492.31 1218.69 492.31 1220 491.932 1221.16 491.174 1222.19 490.426 1223.2 489.379 1224 488.035 1224.57 486.7 1225.15 485.151 1225.44 483.39 1225.44 480.947 1225.44 478.953 1224.92 477.41 1223.88 475.866 1222.83 474.919 1221.34 474.569 1219.4L478.674 1218.78C478.93 1219.85 479.455 1220.66 480.251 1221.21 481.046 1221.75 482.083 1222.02 483.362 1222.02 484.754 1222.02 485.866 1221.73 486.7 1221.15 487.533 1220.56 487.95 1219.85 487.95 1219.01 487.95 1218.32 487.694 1217.75 487.183 1217.29 486.681 1216.82 485.909 1216.47 484.867 1216.24L481.174 1215.43C479.138 1214.96 477.632 1214.22 476.657 1213.21 475.691 1212.2 475.208 1210.91 475.208 1209.36 475.208 1208.07 475.568 1206.95 476.288 1205.98 477.007 1205.01 478.002 1204.26 479.271 1203.72 480.54 1203.17 481.993 1202.9 483.631 1202.9 485.989 1202.9 487.845 1203.41 489.2 1204.43 490.554 1205.45 491.449 1206.8 491.884 1208.51ZM506.384 1225.44C504.234 1225.44 502.383 1224.98 500.83 1224.06 499.286 1223.13 498.093 1221.83 497.25 1220.16 496.417 1218.47 496 1216.5 496 1214.23 496 1212 496.417 1210.03 497.25 1208.32 498.093 1206.62 499.267 1205.29 500.773 1204.33 502.288 1203.38 504.059 1202.9 506.085 1202.9 507.316 1202.9 508.509 1203.1 509.665 1203.51 510.82 1203.92 511.857 1204.55 512.776 1205.43 513.694 1206.3 514.419 1207.43 514.949 1208.82 515.479 1210.2 515.744 1211.88 515.744 1213.86V1215.37H498.401V1212.19H511.582C511.582 1211.07 511.355 1210.08 510.901 1209.22 510.446 1208.35 509.807 1207.66 508.983 1207.16 508.169 1206.66 507.212 1206.41 506.114 1206.41 504.92 1206.41 503.879 1206.7 502.989 1207.29 502.108 1207.86 501.426 1208.62 500.943 1209.56 500.47 1210.49 500.233 1211.5 500.233 1212.59V1215.07C500.233 1216.53 500.489 1217.77 501 1218.79 501.521 1219.82 502.245 1220.6 503.173 1221.14 504.101 1221.67 505.186 1221.93 506.426 1221.93 507.231 1221.93 507.965 1221.82 508.628 1221.59 509.291 1221.35 509.864 1221 510.347 1220.54 510.83 1220.08 511.199 1219.5 511.455 1218.82L515.474 1219.55C515.152 1220.73 514.575 1221.77 513.741 1222.66 512.918 1223.54 511.881 1224.22 510.631 1224.72 509.39 1225.2 507.974 1225.44 506.384 1225.44ZM528.624 1225.43C526.863 1225.43 525.291 1224.98 523.908 1224.08 522.535 1223.17 521.456 1221.87 520.67 1220.2 519.893 1218.51 519.505 1216.49 519.505 1214.13 519.505 1211.78 519.898 1209.76 520.684 1208.08 521.479 1206.41 522.568 1205.12 523.951 1204.23 525.334 1203.34 526.901 1202.9 528.653 1202.9 530.007 1202.9 531.096 1203.12 531.92 1203.58 532.753 1204.02 533.397 1204.55 533.852 1205.14 534.316 1205.74 534.675 1206.26 534.931 1206.72H535.187V1195.91H539.434V1225H535.286V1221.61H534.931C534.675 1222.07 534.306 1222.6 533.823 1223.2 533.35 1223.79 532.696 1224.31 531.863 1224.76 531.03 1225.2 529.95 1225.43 528.624 1225.43ZM529.562 1221.8C530.783 1221.8 531.816 1221.48 532.658 1220.84 533.511 1220.18 534.155 1219.28 534.59 1218.12 535.035 1216.97 535.258 1215.62 535.258 1214.09 535.258 1212.58 535.04 1211.25 534.604 1210.11 534.169 1208.98 533.53 1208.09 532.687 1207.46 531.844 1206.82 530.802 1206.51 529.562 1206.51 528.283 1206.51 527.218 1206.84 526.366 1207.5 525.513 1208.16 524.87 1209.07 524.434 1210.21 524.008 1211.36 523.795 1212.65 523.795 1214.09 523.795 1215.55 524.013 1216.86 524.448 1218.03 524.884 1219.19 525.528 1220.11 526.38 1220.8 527.242 1221.47 528.302 1221.8 529.562 1221.8ZM558.965 1195.91 567.062 1219.6H567.388L575.485 1195.91H580.229L569.761 1225H564.69L554.221 1195.91H558.965ZM584.43 1225V1195.91H594.8C597.063 1195.91 598.938 1196.32 600.425 1197.14 601.911 1197.97 603.024 1199.1 603.763 1200.53 604.501 1201.95 604.871 1203.55 604.871 1205.33 604.871 1207.12 604.497 1208.73 603.749 1210.16 603.01 1211.58 601.893 1212.7 600.396 1213.54 598.91 1214.36 597.039 1214.77 594.786 1214.77H587.655V1211.05H594.388C595.818 1211.05 596.978 1210.8 597.868 1210.31 598.758 1209.81 599.411 1209.13 599.828 1208.27 600.245 1207.41 600.453 1206.43 600.453 1205.33 600.453 1204.23 600.245 1203.25 599.828 1202.4 599.411 1201.55 598.753 1200.88 597.854 1200.4 596.964 1199.91 595.789 1199.67 594.331 1199.67H588.82V1225H584.43ZM633.496 1195.91V1225H629.462L614.675 1203.66H614.406V1225H610.016V1195.91H614.079L628.88 1217.27H629.15V1195.91H633.496ZM650.638 1194.55 641.263 1229.38H637.47L646.845 1194.55H650.638ZM657.246 1195.91 665.343 1219.6H665.67L673.766 1195.91H678.511L668.042 1225H662.971L652.502 1195.91H657.246ZM682.712 1225V1195.91H693.081C695.344 1195.91 697.219 1196.32 698.706 1197.14 700.193 1197.97 701.305 1199.1 702.044 1200.53 702.783 1201.95 703.152 1203.55 703.152 1205.33 703.152 1207.12 702.778 1208.73 702.03 1210.16 701.291 1211.58 700.174 1212.7 698.678 1213.54 697.191 1214.36 695.321 1214.77 693.067 1214.77H685.936V1211.05H692.669C694.099 1211.05 695.259 1210.8 696.149 1210.31 697.039 1209.81 697.693 1209.13 698.109 1208.27 698.526 1207.41 698.734 1206.43 698.734 1205.33 698.734 1204.23 698.526 1203.25 698.109 1202.4 697.693 1201.55 697.035 1200.88 696.135 1200.4 695.245 1199.91 694.071 1199.67 692.612 1199.67H687.101V1225H682.712ZM731.778 1195.91V1225H727.744L712.957 1203.66H712.687V1225H708.298V1195.91H712.36L727.161 1217.27H727.431V1195.91H731.778ZM748.766 1225V1195.91H759.136C761.399 1195.91 763.274 1196.32 764.761 1197.14 766.247 1197.97 767.36 1199.1 768.099 1200.53 768.837 1201.95 769.207 1203.55 769.207 1205.33 769.207 1207.12 768.833 1208.73 768.085 1210.16 767.346 1211.58 766.228 1212.7 764.732 1213.54 763.246 1214.36 761.375 1214.77 759.121 1214.77H751.991V1211.05H758.724C760.154 1211.05 761.314 1210.8 762.204 1210.31 763.094 1209.81 763.747 1209.13 764.164 1208.27 764.581 1207.41 764.789 1206.43 764.789 1205.33 764.789 1204.23 764.581 1203.25 764.164 1202.4 763.747 1201.55 763.089 1200.88 762.19 1200.4 761.299 1199.91 760.125 1199.67 758.667 1199.67H753.156V1225H748.766ZM774.011 1225V1203.18H778.116V1206.65H778.344C778.741 1205.47 779.442 1204.55 780.446 1203.88 781.459 1203.2 782.605 1202.86 783.884 1202.86 784.149 1202.86 784.461 1202.86 784.821 1202.88 785.19 1202.9 785.479 1202.93 785.688 1202.95V1207.02C785.517 1206.97 785.214 1206.92 784.778 1206.86 784.343 1206.79 783.907 1206.76 783.472 1206.76 782.468 1206.76 781.573 1206.97 780.787 1207.4 780.01 1207.82 779.395 1208.4 778.94 1209.15 778.486 1209.89 778.259 1210.73 778.259 1211.68V1225H774.011ZM797.772 1225.44C795.727 1225.44 793.942 1224.97 792.417 1224.03 790.892 1223.1 789.709 1221.79 788.866 1220.1 788.023 1218.41 787.602 1216.44 787.602 1214.19 787.602 1211.93 788.023 1209.95 788.866 1208.25 789.709 1206.56 790.892 1205.24 792.417 1204.3 793.942 1203.37 795.727 1202.9 797.772 1202.9 799.817 1202.9 801.603 1203.37 803.127 1204.3 804.652 1205.24 805.835 1206.56 806.678 1208.25 807.521 1209.95 807.942 1211.93 807.942 1214.19 807.942 1216.44 807.521 1218.41 806.678 1220.1 805.835 1221.79 804.652 1223.1 803.127 1224.03 801.603 1224.97 799.817 1225.44 797.772 1225.44ZM797.786 1221.88C799.112 1221.88 800.21 1221.52 801.082 1220.82 801.953 1220.12 802.597 1219.19 803.013 1218.03 803.44 1216.86 803.653 1215.58 803.653 1214.18 803.653 1212.78 803.44 1211.51 803.013 1210.34 802.597 1209.17 801.953 1208.22 801.082 1207.51 800.21 1206.8 799.112 1206.45 797.786 1206.45 796.451 1206.45 795.343 1206.8 794.462 1207.51 793.591 1208.22 792.942 1209.17 792.516 1210.34 792.1 1211.51 791.891 1212.78 791.891 1214.18 791.891 1215.58 792.1 1216.86 792.516 1218.03 792.942 1219.19 793.591 1220.12 794.462 1220.82 795.343 1221.52 796.451 1221.88 797.786 1221.88ZM815.176 1203.18 819.991 1211.68 824.849 1203.18H829.494L822.69 1214.09 829.551 1225H824.906L819.991 1216.85 815.091 1225H810.432L817.222 1214.09 810.517 1203.18H815.176ZM836.54 1233.18C835.905 1233.18 835.328 1233.13 834.807 1233.03 834.286 1232.93 833.898 1232.83 833.642 1232.71L834.665 1229.23C835.441 1229.44 836.133 1229.53 836.739 1229.5 837.345 1229.47 837.88 1229.25 838.344 1228.82 838.817 1228.39 839.234 1227.7 839.594 1226.73L840.119 1225.28 832.136 1203.18H836.682L842.207 1220.11H842.435L847.96 1203.18H852.52L843.528 1227.91C843.112 1229.05 842.581 1230.01 841.938 1230.8 841.294 1231.59 840.527 1232.19 839.636 1232.59 838.746 1232.98 837.714 1233.18 836.54 1233.18ZM867.438 1225V1195.91H885.677V1199.69H871.827V1208.55H884.725V1212.32H871.827V1221.22H885.847V1225H867.438ZM894.551 1203.18 899.366 1211.68 904.224 1203.18H908.869L902.065 1214.09 908.926 1225H904.281L899.366 1216.85 894.466 1225H889.807L896.597 1214.09 889.892 1203.18H894.551ZM923.415 1203.18V1206.59H911.497V1203.18H923.415ZM914.693 1197.95H918.94V1218.59C918.94 1219.42 919.063 1220.04 919.31 1220.45 919.556 1220.86 919.873 1221.14 920.261 1221.29 920.659 1221.43 921.09 1221.51 921.554 1221.51 921.895 1221.51 922.193 1221.48 922.449 1221.43 922.705 1221.39 922.903 1221.35 923.045 1221.32L923.812 1224.83C923.566 1224.92 923.216 1225.02 922.761 1225.11 922.307 1225.22 921.739 1225.27 921.057 1225.28 919.939 1225.3 918.898 1225.1 917.932 1224.69 916.966 1224.27 916.185 1223.63 915.588 1222.76 914.991 1221.88 914.693 1220.79 914.693 1219.47V1197.95ZM937.282 1225.44C935.132 1225.44 933.281 1224.98 931.728 1224.06 930.184 1223.13 928.991 1221.83 928.148 1220.16 927.315 1218.47 926.898 1216.5 926.898 1214.23 926.898 1212 927.315 1210.03 928.148 1208.32 928.991 1206.62 930.165 1205.29 931.671 1204.33 933.186 1203.38 934.957 1202.9 936.984 1202.9 938.215 1202.9 939.408 1203.1 940.563 1203.51 941.719 1203.92 942.755 1204.55 943.674 1205.43 944.593 1206.3 945.317 1207.43 945.847 1208.82 946.378 1210.2 946.643 1211.88 946.643 1213.86V1215.37H929.299V1212.19H942.481C942.481 1211.07 942.254 1210.08 941.799 1209.22 941.344 1208.35 940.705 1207.66 939.881 1207.16 939.067 1206.66 938.111 1206.41 937.012 1206.41 935.819 1206.41 934.777 1206.7 933.887 1207.29 933.006 1207.86 932.325 1208.62 931.842 1209.56 931.368 1210.49 931.131 1211.5 931.131 1212.59V1215.07C931.131 1216.53 931.387 1217.77 931.898 1218.79 932.419 1219.82 933.144 1220.6 934.072 1221.14 935 1221.67 936.084 1221.93 937.325 1221.93 938.129 1221.93 938.863 1221.82 939.526 1221.59 940.189 1221.35 940.762 1221 941.245 1220.54 941.728 1220.08 942.097 1219.5 942.353 1218.82L946.373 1219.55C946.051 1220.73 945.473 1221.77 944.64 1222.66 943.816 1223.54 942.779 1224.22 941.529 1224.72 940.289 1225.2 938.873 1225.44 937.282 1225.44ZM955.602 1212.05V1225H951.355V1203.18H955.432V1206.73H955.702C956.204 1205.58 956.99 1204.65 958.06 1203.95 959.139 1203.25 960.498 1202.9 962.136 1202.9 963.623 1202.9 964.925 1203.21 966.043 1203.84 967.16 1204.45 968.027 1205.37 968.642 1206.59 969.258 1207.81 969.565 1209.32 969.565 1211.12V1225H965.318V1211.63C965.318 1210.05 964.906 1208.82 964.082 1207.93 963.259 1207.03 962.127 1206.58 960.688 1206.58 959.703 1206.58 958.827 1206.79 958.06 1207.22 957.302 1207.64 956.701 1208.27 956.256 1209.09 955.82 1209.91 955.602 1210.89 955.602 1212.05ZM991.611 1208.51 987.761 1209.19C987.6 1208.7 987.345 1208.23 986.994 1207.78 986.653 1207.34 986.189 1206.97 985.602 1206.69 985.015 1206.41 984.281 1206.26 983.401 1206.26 982.198 1206.26 981.194 1206.53 980.389 1207.07 979.584 1207.6 979.182 1208.29 979.182 1209.13 979.182 1209.86 979.452 1210.45 979.991 1210.89 980.531 1211.34 981.402 1211.7 982.605 1211.99L986.071 1212.78C988.079 1213.25 989.575 1213.96 990.56 1214.93 991.545 1215.89 992.037 1217.15 992.037 1218.69 992.037 1220 991.658 1221.16 990.901 1222.19 990.152 1223.2 989.106 1224 987.761 1224.57 986.426 1225.15 984.878 1225.44 983.116 1225.44 980.673 1225.44 978.68 1224.92 977.136 1223.88 975.593 1222.83 974.646 1221.34 974.295 1219.4L978.401 1218.78C978.656 1219.85 979.182 1220.66 979.977 1221.21 980.773 1221.75 981.81 1222.02 983.088 1222.02 984.48 1222.02 985.593 1221.73 986.426 1221.15 987.259 1220.56 987.676 1219.85 987.676 1219.01 987.676 1218.32 987.42 1217.75 986.909 1217.29 986.407 1216.82 985.635 1216.47 984.594 1216.24L980.901 1215.43C978.865 1214.96 977.359 1214.22 976.384 1213.21 975.418 1212.2 974.935 1210.91 974.935 1209.36 974.935 1208.07 975.295 1206.95 976.014 1205.98 976.734 1205.01 977.728 1204.26 978.997 1203.72 980.266 1203.17 981.72 1202.9 983.358 1202.9 985.716 1202.9 987.572 1203.41 988.926 1204.43 990.28 1205.45 991.175 1206.8 991.611 1208.51ZM996.707 1225V1203.18H1000.95V1225H996.707ZM998.852 1199.82C998.113 1199.82 997.478 1199.57 996.948 1199.08 996.427 1198.57 996.167 1197.98 996.167 1197.29 996.167 1196.59 996.427 1195.99 996.948 1195.5 997.478 1195 998.113 1194.74 998.852 1194.74 999.59 1194.74 1000.22 1195 1000.74 1195.5 1001.27 1195.99 1001.54 1196.59 1001.54 1197.29 1001.54 1197.98 1001.27 1198.57 1000.74 1199.08 1000.22 1199.57 999.59 1199.82 998.852 1199.82ZM1015.86 1225.44C1013.81 1225.44 1012.03 1224.97 1010.5 1224.03 1008.98 1223.1 1007.79 1221.79 1006.95 1220.1 1006.11 1218.41 1005.69 1216.44 1005.69 1214.19 1005.69 1211.93 1006.11 1209.95 1006.95 1208.25 1007.79 1206.56 1008.98 1205.24 1010.5 1204.3 1012.03 1203.37 1013.81 1202.9 1015.86 1202.9 1017.9 1202.9 1019.69 1203.37 1021.21 1204.3 1022.74 1205.24 1023.92 1206.56 1024.76 1208.25 1025.61 1209.95 1026.03 1211.93 1026.03 1214.19 1026.03 1216.44 1025.61 1218.41 1024.76 1220.1 1023.92 1221.79 1022.74 1223.1 1021.21 1224.03 1019.69 1224.97 1017.9 1225.44 1015.86 1225.44ZM1015.87 1221.88C1017.2 1221.88 1018.3 1221.52 1019.17 1220.82 1020.04 1220.12 1020.68 1219.19 1021.1 1218.03 1021.53 1216.86 1021.74 1215.58 1021.74 1214.18 1021.74 1212.78 1021.53 1211.51 1021.1 1210.34 1020.68 1209.17 1020.04 1208.22 1019.17 1207.51 1018.3 1206.8 1017.2 1206.45 1015.87 1206.45 1014.54 1206.45 1013.43 1206.8 1012.55 1207.51 1011.68 1208.22 1011.03 1209.17 1010.6 1210.34 1010.19 1211.51 1009.98 1212.78 1009.98 1214.18 1009.98 1215.58 1010.19 1216.86 1010.6 1218.03 1011.03 1219.19 1011.68 1220.12 1012.55 1220.82 1013.43 1221.52 1014.54 1221.88 1015.87 1221.88ZM1035.02 1212.05V1225H1030.77V1203.18H1034.85V1206.73H1035.12C1035.62 1205.58 1036.4 1204.65 1037.47 1203.95 1038.55 1203.25 1039.91 1202.9 1041.55 1202.9 1043.04 1202.9 1044.34 1203.21 1045.46 1203.84 1046.57 1204.45 1047.44 1205.37 1048.06 1206.59 1048.67 1207.81 1048.98 1209.32 1048.98 1211.12V1225H1044.73V1211.63C1044.73 1210.05 1044.32 1208.82 1043.5 1207.93 1042.67 1207.03 1041.54 1206.58 1040.1 1206.58 1039.12 1206.58 1038.24 1206.79 1037.47 1207.22 1036.72 1207.64 1036.11 1208.27 1035.67 1209.09 1035.23 1209.91 1035.02 1210.89 1035.02 1212.05Z" fill="#000000"/><circle cx="75.6158" cy="75.6158" fill="#95d1f9" r="75.6158" transform="matrix(-.999997 .00258578 .00258578 .999997 203.231 707)"/><path d="M161.25 796.902H94.75C93.793 796.902 93 797.695 93 798.652V800.402C93 804.257 96.1445 807.402 100 807.402H156C159.855 807.402 163 804.257 163 800.402V798.652C163 797.788 162.213 796.902 161.25 796.902ZM156 804H100C98.0706 804 96.5 802.429 96.5 800.5H159.5C159.5 802.425 157.925 804 156 804ZM101.75 793.5C102.717 793.5 103.5 792.713 103.5 791.75V765.5C103.5 763.568 105.071 762 107 762H149C150.929 762 152.5 763.568 152.5 765.5V791.75C152.5 792.717 153.283 793.5 154.25 793.5 155.217 793.5 156 792.717 156 791.75V765.5C156 761.641 152.861 758.5 149 758.5H107C103.139 758.5 100 761.641 100 765.5V791.75C100 792.713 100.783 793.5 101.75 793.5Z" fill="#000000"/><circle cx="75.6158" cy="75.6158" fill="#95d1f9" r="75.6158" transform="matrix(-.999997 .00258578 .00258578 .999997 203.231 921)"/><circle cx="75.6158" cy="75.6158" fill="#95d1f9" r="75.6158" transform="matrix(-.999997 .00258578 .00258578 .999997 203.231 493)"/><circle cx="75.6158" cy="75.6158" fill="#95d1f9" r="75.6158" transform="matrix(-.999997 .00258578 .00258578 .999997 203.231 286)"/><circle cx="75.6158" cy="75.6158" fill="#95d1f9" r="75.6158" transform="matrix(-.999997 .00258578 .00258578 .999997 203.231 1135)"/><path d="M139.7 965.8H116.3C111.992 965.8 108.5 969.292 108.5 973.6V1020.4C108.5 1024.71 111.992 1028.2 116.3 1028.2H139.7C144.008 1028.2 147.5 1024.71 147.5 1020.4V973.6C147.5 969.292 144.002 965.8 139.7 965.8ZM124.1 969.7H131.9V971.65H124.1V969.7ZM143.6 1020.4C143.6 1022.55 141.85 1024.3 139.7 1024.3H116.3C114.15 1024.3 112.4 1022.55 112.4 1020.4V973.6C112.4 971.45 114.15 969.7 116.3 969.7H120.2V971.65C120.2 973.8 121.95 975.55 124.1 975.55H131.9C134.05 975.55 135.8 973.8 135.8 971.65V969.7H139.7C141.85 969.7 143.6 971.45 143.6 973.6V1020.4ZM131.9 1014.55H124.1C123.023 1014.55 122.15 1015.42 122.15 1016.5 122.15 1017.58 123.023 1018.45 124.1 1018.45H131.9C132.977 1018.45 133.85 1017.58 133.85 1016.5 133.85 1015.43 132.972 1014.55 131.9 1014.55Z" fill="#000000"/><path d="M128 326.8C147.443 326.8 163.2 342.558 163.2 362 163.2 381.443 147.443 397.2 128 397.2 108.558 397.2 92.8 381.443 92.8 362 92.8 342.558 108.558 326.8 128 326.8ZM128 392.8C130.296 392.8 133.555 390.82 136.511 384.921 137.873 382.199 139.014 378.789 139.701 375.2H116.175C116.986 378.789 118.128 382.199 119.489 384.921 122.445 390.82 125.704 392.8 128 392.8ZM115.391 370.8H140.609C140.994 368.023 141.2 365.066 141.2 362 141.2 358.934 140.994 355.978 140.609 353.2H115.391C115.006 355.978 114.8 358.934 114.8 362 114.8 365.066 115.006 368.023 115.391 370.8ZM139.701 348.8C139.014 345.088 137.873 341.801 136.511 339.077 133.555 333.176 130.296 331.2 128 331.2 125.704 331.2 122.445 333.176 119.489 339.077 118.128 341.801 116.986 345.088 116.175 348.8H139.701ZM144.926 353.2C145.408 356.019 145.6 358.961 145.6 362 145.6 365.039 145.408 367.981 144.926 370.8H157.521C158.36 368.009 158.8 365.053 158.8 362 158.8 358.948 158.36 355.991 157.521 353.2H144.926ZM137.831 332.803C140.719 336.699 143.001 342.255 144.321 348.8H155.83C152.283 341.306 145.779 335.479 137.831 332.803ZM118.169 332.803C110.221 335.479 103.723 341.306 100.165 348.8H111.679C112.999 342.255 115.281 336.699 118.169 332.803ZM97.2 362C97.2 365.053 97.6455 368.009 98.476 370.8H110.95C110.593 367.981 110.4 365.039 110.4 362 110.4 358.961 110.593 356.019 110.95 353.2H98.476C97.6455 355.991 97.2 358.948 97.2 362ZM155.83 375.2H144.321C143.001 381.745 140.719 387.3 137.831 391.191 145.779 388.524 152.283 382.694 155.83 375.2ZM111.679 375.2H100.165C103.723 382.694 110.221 388.524 118.169 391.191 115.281 387.3 112.999 381.745 111.679 375.2Z" fill="#000000"/><path d="M120.4 548.1C120.4 552.696 117.134 556.424 112.8 557.41V561.4C112.8 564.547 115.353 567.1 118.5 567.1H137.5C140.647 567.1 143.2 564.547 143.2 561.4V557.41C138.866 556.424 135.6 552.696 135.6 548.1 135.6 542.854 139.851 538.6 145.1 538.6 150.349 538.6 154.6 542.854 154.6 548.1 154.6 552.696 151.334 556.424 147 557.41V561.4C147 566.649 142.749 570.9 137.5 570.9H129.9V580.59C134.234 581.469 137.5 585.304 137.5 589.9 137.5 595.149 133.249 599.4 128 599.4 122.751 599.4 118.5 595.149 118.5 589.9 118.5 585.304 121.766 581.469 126.1 580.59V570.9H118.5C113.254 570.9 109 566.649 109 561.4V557.41C104.663 556.424 101.4 552.696 101.4 548.1 101.4 542.854 105.654 538.6 110.9 538.6 116.149 538.6 120.4 542.854 120.4 548.1ZM110.9 553.8C114.047 553.8 116.6 551.247 116.6 548.1 116.6 544.952 114.047 542.4 110.9 542.4 107.752 542.4 105.2 544.952 105.2 548.1 105.2 551.247 107.752 553.8 110.9 553.8ZM128 584.2C124.853 584.2 122.3 586.753 122.3 589.9 122.3 593.047 124.853 595.6 128 595.6 131.147 595.6 133.7 593.047 133.7 589.9 133.7 586.753 131.147 584.2 128 584.2ZM145.1 542.4C141.953 542.4 139.4 544.952 139.4 548.1 139.4 551.247 141.953 553.8 145.1 553.8 148.247 553.8 150.8 551.247 150.8 548.1 150.8 544.952 148.247 542.4 145.1 542.4Z" fill="#000000"/><path d="M105.575 1195.4C105.575 1193.78 106.885 1192.48 108.5 1192.48 110.121 1192.48 111.425 1193.78 111.425 1195.4 111.425 1197.02 110.121 1198.33 108.5 1198.33 106.885 1198.33 105.575 1197.02 105.575 1195.4ZM123.125 1195.4C123.125 1197.02 121.821 1198.33 120.2 1198.33 118.579 1198.33 117.275 1197.02 117.275 1195.4 117.275 1193.78 118.579 1192.48 120.2 1192.48 121.821 1192.48 123.125 1193.78 123.125 1195.4ZM128.975 1195.4C128.975 1193.78 130.279 1192.48 131.9 1192.48 133.521 1192.48 134.825 1193.78 134.825 1195.4 134.825 1197.02 133.521 1198.33 131.9 1198.33 130.279 1198.33 128.975 1197.02 128.975 1195.4ZM96.8 1191.5C96.8 1187.19 100.292 1183.7 104.6 1183.7H151.4C155.702 1183.7 159.2 1187.19 159.2 1191.5V1230.5C159.2 1234.8 155.702 1238.3 151.4 1238.3H104.6C100.292 1238.3 96.8 1234.8 96.8 1230.5V1191.5ZM100.7 1191.5V1230.5C100.7 1232.66 102.447 1234.4 104.6 1234.4H151.4C153.557 1234.4 155.3 1232.66 155.3 1230.5V1191.5C155.3 1189.35 153.557 1187.6 151.4 1187.6H104.6C102.447 1187.6 100.7 1189.35 100.7 1191.5Z" fill="#000000"/></g></svg>